<svg xmlns="http://www.w3.org/2000/svg" width="40" height="12" viewBox="0 0 40 12">
  <g id="OLD" fill="none" fill-rule="evenodd" stroke="none" stroke-width="1">
    <g id="Test-Copy-28" fill="#1D1D1B" transform="translate(-1353 -28)">
      <path id="Arup-logo" d="M1385.70241,28.8768636 L1390.04127,28.9636818 C1391.89423,29.1250455 1392.76491,30.2375455 1392.94264,31.9500455 C1392.90355,33.9043636 1391.10627,35.4159545 1388.91627,34.533 C1390.71741,34.5434545 1391.83014,33.863 1391.70809,31.9500455 C1391.60059,30.4755 1390.68445,29.6834545 1388.96173,29.5759545 C1388.38264,29.5677727 1388.28127,29.6814091 1388.21718,29.8116364 L1388.21718,38.6732273 C1388.3765,39.1593636 1388.55218,39.4489091 1389.31127,39.5852727 L1385.67968,39.5605 C1386.26082,39.4675455 1386.82127,39.1777727 1386.86673,38.6939091 L1386.86673,29.6689091 C1386.80468,29.3505 1386.52536,29.0423182 1385.70241,28.8768636 L1385.70241,28.8768636 Z M1373.99491,28.8768636 L1377.71968,28.8768636 C1376.92764,28.9305 1376.50786,29.2036818 1376.46241,29.6916364 L1376.46241,36.5348182 C1376.61332,38.1645909 1377.59559,39.0186818 1379.04536,39.0952727 C1380.41241,39.1264091 1381.78559,38.4520909 1381.83923,36.4336818 L1381.83923,29.6916364 C1381.684,29.2966364 1381.28082,29.0236818 1380.62945,28.8768636 L1384.07286,28.8768636 C1383.40286,29.0589091 1382.97877,29.303 1382.80514,29.6109545 L1382.84014,36.3902727 C1382.75968,38.9502727 1380.88786,39.7859545 1379.06809,39.8873182 C1376.79718,39.8191364 1375.28559,38.6691364 1375.13468,36.4191364 L1375.11173,29.6689091 C1375.05195,29.2098182 1374.55332,29.0236818 1373.99491,28.8768636 L1373.99491,28.8768636 Z M1364.33718,39.5418636 C1364.83968,39.4302727 1365.18923,39.1943636 1365.3815,38.8345909 L1365.3815,29.7970909 C1365.33605,29.3236818 1364.89332,29.0216364 1364.05377,28.8934545 L1367.89627,28.8643636 C1370.134,28.9100455 1371.12264,30.0493636 1371.25695,31.888 C1371.32309,33.1018636 1370.64059,33.9416364 1369.63764,34.6055 C1370.36559,35.4759545 1371.02741,36.2207273 1371.85445,37.2132273 C1372.79355,38.3405 1373.50923,39.4445909 1374.78718,39.3434545 C1373.44491,40.0527727 1372.19582,39.5541364 1370.71923,37.6766364 L1369.15786,35.6952727 C1368.51877,34.8845909 1367.77014,34.5764091 1367.64195,34.5993636 C1369.27991,34.5495909 1370.24559,33.8134545 1370.12786,31.9727727 C1369.92923,30.4961818 1368.96968,29.6234545 1367.55718,29.5718636 C1367.23468,29.5614091 1366.93468,29.6068636 1366.68036,29.7682273 L1366.68036,38.8345909 C1367.04218,39.2875455 1367.46627,39.5234545 1367.95218,39.5418636 L1364.33718,39.5418636 Z M1356.50536,34.8286818 L1357.73173,31.2302727 L1359.19809,34.8286818 L1356.50536,34.8286818 Z M1357.82059,28.0000455 L1362.25264,38.8386818 C1362.25264,38.8386818 1362.57514,39.5170909 1363.54718,39.5502727 L1359.92377,39.5832273 C1360.56718,39.5048182 1360.91241,39.2336818 1360.82968,38.8386818 L1359.47105,35.4739091 L1356.30059,35.4739091 L1355.20059,38.8057273 C1355.30582,39.2441364 1355.61809,39.5273182 1356.23445,39.5832273 L1352.99991,39.5502727 C1353.47764,39.4693636 1353.89127,39.2834545 1354.16423,38.8698182 L1357.82059,28.0000455 Z"/>
    </g>
  </g>
</svg>
