<svg xmlns="http://www.w3.org/2000/svg" width="45" height="45" viewBox="0 0 45 45">
  <g id="OLD" fill="none" fill-rule="evenodd" stroke="none" stroke-width="1">
    <g id="Test-Copy-24" transform="translate(-830 -489)">
      <g id="AV-Level-5" transform="translate(830 489)">
        <rect id="Rectangle-Copy-27" width="45" height="45" x="0" y="0" fill="#24CC8C" rx="4.5"/>
        <g id="Group-3-Copy-4" transform="translate(6 5)">
          <path id="Path" fill="#24CC8C" d="M28.7418124,15.184696 C28.9235226,14.5633183 29.2285107,13.0768575 28.5016698,11.7642684 C27.9401496,10.7509667 26.8983444,10.0754323 25.40262,9.75476722 C25.0871568,8.6553848 24.3765629,7.71134679 23.4073705,7.10393587 C22.1859929,6.32650119 20.6610523,6.14051544 19.2266105,6.59158432 C18.5496508,6.80536105 18.000886,7.05405463 17.5805297,7.33552732 C17.4891045,7.39431591 17.4012423,7.45859145 17.3175843,7.52792637 C16.6848052,6.89372209 14.8563017,5.46711876 11.7800546,6.2082114 C11.6902684,6.22602613 9.6494133,6.65215439 8.58338005,8.49277197 C8.0453753,8.42935154 6.76271496,8.37804513 5.72661045,9.11985036 C5.00832067,9.63362708 4.5558266,10.4189002 4.37839192,11.4564299 C3.54608789,11.6531045 1.00000713,12.5253135 1.00000713,15.7918219 C1.00000713,15.8281639 1.0605772,19.3547672 4.62993587,19.8200879 C4.71544656,20.5321069 5.03033967,21.1968812 5.52708551,21.7141496 C6.3821924,22.6084489 7.73611164,23.0616556 9.54822565,23.0616556 L13.8180594,23.0616556 L17.4472755,28.9227007 C17.749342,29.4182352 18.2877743,29.7208005 18.8681781,29.7208005 L20.2620024,29.7208005 C20.5529525,29.7208005 20.8228812,29.569304 20.9745914,29.3211093 C21.1325012,29.0673563 21.1465392,28.7496841 21.0115748,28.4830333 L20.0952565,26.6545297 C20.6425249,26.440753 21.2781544,25.9234133 21.4014323,24.928639 C22.0370618,25.0996603 23.2356366,25.2991853 24.2802922,24.7740071 C24.9992945,24.4127245 25.5123587,23.7763824 25.8095083,22.8884964 C26.5363492,22.9918219 28.3641401,23.1200879 29.6517173,22.0854086 C30.5296983,21.3792328 30.9750665,20.2839834 30.9750665,18.8217506 C30.9715036,18.7155748 30.8837838,16.3640309 28.7418124,15.184696 L28.7418124,15.184696 Z"/>
          <path id="Path" fill="#FFF" d="M29.2285107,21.5523919 C27.878867,22.6405867 25.6655653,22.1737696 25.6427625,22.1694941 L25.374829,22.1103492 C25.0185344,22.0063112 24.3059454,21.7070238 23.6866342,20.8804204 L23.1422874,21.288734 C23.8434751,22.2257886 24.6615273,22.601323 25.1375368,22.748829 C24.8966817,23.4215131 24.5083207,23.8975226 23.978867,24.1647435 C22.8266105,24.7462162 21.3358741,24.2010855 21.2168717,24.1561924 C21.1598646,24.1269762 20.6361116,23.8370238 20.6845677,22.9112993 L20.0047577,22.8756698 C19.950601,23.923247 20.4451378,24.4433658 20.7394371,24.6571425 C20.7058741,25.5949097 20.1223349,25.9298266 19.7859929,26.0438409 L18.9380119,24.4162874 L18.3337363,24.7298266 L19.301361,26.5918219 L20.4045202,28.7880214 C20.4333088,28.8436033 20.4306722,28.9103017 20.3973943,28.9633183 C20.3694608,29.010848 20.3185107,29.0402779 20.2633563,29.0402779 L18.866753,29.0402779 C18.5222162,29.039209 18.2030475,28.858924 18.0244727,28.5642684 L14.6168717,23.0623682 L16.8715036,23.0623682 L16.8715036,22.3818456 L9.54680048,22.3818456 C7.93563658,22.3818456 6.75131354,22.0020356 6.02661045,21.2538171 C5.57090974,20.7924157 5.30796437,20.1748147 5.29121853,19.5265012 L5.30119477,19.2884964 C5.34095724,18.9684727 5.48090974,18.6691853 5.70095724,18.4333895 C6.09858195,18.0115368 6.75915202,17.7970475 7.66271496,17.7970475 L10.9805297,17.7970475 C11.0482257,18.0984727 11.1130713,18.6293515 10.8821924,19.0675938 C10.7040451,19.4067862 10.3662779,19.6419406 9.87886698,19.7666437 L10.047038,20.4265012 C10.7311235,20.2512043 11.2156841,19.8991853 11.4871805,19.3804204 C11.7971568,18.7868337 11.7415748,18.1227007 11.6582019,17.712962 C12.5795796,17.5191378 14.0888432,16.8863587 14.3182969,14.8191378 C14.9646152,14.9253135 16.282905,15.0329145 17.5035701,14.4977601 C17.9331188,15.2595891 18.5289145,15.9148147 19.2465629,16.4146247 C19.1567767,17.048829 18.6323112,19.1744822 15.643,19.1744822 L15.643,19.8557173 C18.7662779,19.8557173 19.6263729,17.7785202 19.8593895,16.7915843 C20.6724537,17.2191378 21.7121211,17.5298266 23.038962,17.5298266 C23.2199596,17.5298266 23.4061591,17.5239121 23.5975606,17.5120119 L23.5548765,16.8329145 C19.9491758,17.0580926 18.4954941,14.933152 18.0964442,14.1785202 C19.0818836,13.5272138 19.70262,12.4683064 19.9406247,11.036715 L19.2685819,10.9255511 C19.0612898,12.1768575 18.5332613,13.0854086 17.700886,13.6269762 C16.1824299,14.6117743 14.1159216,14.0880214 14.0959691,14.0830333 L13.6805297,13.9732945 L13.6684157,14.400848 C13.5914561,17.1150998 11.0646152,17.1158124 10.9513135,17.1186627 L7.66271496,17.1186627 C7.53231116,17.1186627 7.4061829,17.1236508 7.28290499,17.1314893 L7.27007838,17.1314893 C5.58979335,17.1314893 5.29905701,15.101323 5.28694299,15.0143872 L4.61212114,15.1027482 C4.69905701,15.7732945 5.08741805,16.8656936 5.96604038,17.43719 C5.67587411,17.5650285 5.4142114,17.7496603 5.19644418,17.9801829 C4.89943705,18.3022732 4.70539905,18.7057411 4.63919952,19.1388527 C1.74466271,18.7112993 1.68195487,15.9165249 1.68124228,15.7953848 C1.68124228,12.5174751 4.59858195,12.1020356 4.72185986,12.0863587 L4.98409264,12.052867 L4.98409264,12.0457411 C5.45012589,11.9901591 6.51402138,11.9438409 7.27934204,12.521038 C7.80950831,12.9200879 8.10879572,13.5642684 8.16794062,14.4336271 L8.847038,14.3873088 C8.80499525,13.773057 8.65677672,13.2471663 8.4102209,12.8103492 C9.07007838,12.7269762 9.8582019,12.3599929 10.2772043,11.3502542 L9.64870071,11.0894466 C9.18338005,12.2110618 8.16865321,12.1711568 7.87292874,12.1341021 C7.81378385,12.0799454 7.75392637,12.0257886 7.68908076,11.9773325 C6.82756057,11.3281639 5.72233492,11.3003729 5.09525653,11.3502542 C5.26414014,10.6112993 5.60475772,10.0497791 6.11710926,9.68137055 C6.7277981,9.24312827 7.4710285,9.14764133 8.0061829,9.14764133 C8.23805938,9.1457886 8.46957957,9.16460095 8.69810689,9.20393587 L8.95321378,9.25666746 L9.07079097,9.02436342 C9.943,7.29989786 11.8926437,6.8865962 11.9247102,6.87875772 C14.6831425,6.21391211 16.2900309,7.47091924 16.825114,8.00393587 C16.2608147,8.63528979 15.5952565,9.73196437 15.6465629,11.3659311 L16.3270855,11.3445534 C16.2843302,9.99633492 16.803095,9.07994537 17.2634276,8.5362399 L17.2719786,8.54764133 L17.547038,8.24835392 C17.8911473,7.87210689 18.5446627,7.52650119 19.4304109,7.25072922 C20.673095,6.85951781 21.9878931,7.01842518 23.0375368,7.68683373 C24.521076,8.63172684 24.7812423,10.0946722 24.78338,10.1096366 C24.7882969,10.1374276 25.2209097,12.8402779 23.449342,13.5507292 L23.703095,14.1827957 C25.4646152,13.4759074 25.5615273,11.4343397 25.5059454,10.4873088 C26.6646152,10.7801829 27.4698409,11.321038 27.9023824,12.0977601 C28.4724537,13.1267387 28.2629525,14.3402779 28.111171,14.9110618 C27.655114,14.7421781 26.847038,14.4920594 26.1971568,14.5547672 L26.2684157,15.2317268 C27.0151378,15.1554798 28.1432375,15.6521544 28.1845677,15.6699691 C30.20262,16.6141496 30.2924062,18.7554798 30.2952565,18.8360024 C30.2938314,20.0694941 29.9346865,20.9823207 29.2270143,21.5523919 L29.2285107,21.5523919 Z"/>
          <path id="Line-5-Copy-2" stroke="#FFF" stroke-linecap="round" stroke-linejoin="round" stroke-width="3" d="M33,1 L1,34" opacity=".389" transform="matrix(-1 0 0 1 34 0)"/>
        </g>
      </g>
    </g>
  </g>
</svg>
