<svg xmlns="http://www.w3.org/2000/svg" width="45" height="45" viewBox="0 0 45 45">
  <g id="OLD" fill="none" fill-rule="evenodd" stroke="none" stroke-width="1">
    <g id="Test-Copy-24" transform="translate(-417 -312)">
      <g id="AV-Level-0" transform="translate(417 312)">
        <rect id="Rectangle-Copy-22" width="45" height="45" x="0" y="0" fill="#D9F4E6" rx="4.5"/>
        <g id="Group-11-Copy-2" fill="#24CC8C" transform="rotate(-1 420.56 -782.12)">
          <path id="Fill-6" d="M16.5512255,32.4247059 C18.2389706,32.7894118 20.1134804,30.7433333 20.7375,27.8546078 L14.6262255,26.5330392 C14.0022059,29.4222549 14.8639706,32.06 16.5512255,32.4247059"/>
          <path id="Fill-9" d="M22.4996078,5.52808824 C21.9564706,4.98740196 21.2515686,4.57171569 20.4863725,4.52710784 C19.5672549,4.47318627 18.6839216,4.96436275 18.0505882,5.6325 C15.4652941,8.36142157 15.3045098,12.680049 15.6378431,16.2011275 C15.8388235,18.8109314 16.4040196,21.2805392 15.4741176,23.8212255 C17.3373529,24.187402 19.1986275,24.5609314 21.0608824,24.9305392 C21.0608824,24.0006373 21.9388235,22.1673039 23.0755882,19.7393627 C24.2118627,17.3119118 25.0893137,14.9614216 24.9863725,11.784951 C24.9138235,9.52318627 24.1339216,7.15504902 22.4996078,5.52808824"/>
        </g>
        <g id="Group-3-Copy-2" fill="#24CC8C" transform="translate(6 7)">
          <path id="Fill-1" d="M5.67480782,0.338384358 C6.08777803,-0.0745858473 6.78468305,0.229419739 6.78468305,0.80010689 L6.78468305,0.80010689 L6.78468305,10.1922745 C6.78468305,10.9465426 7.93178734,10.9465426 7.93178734,10.1922745 L7.93178734,10.1922745 L7.93178734,3.80562458 C7.93466816,3.06569721 9.03878175,2.84200633 9.23667188,3.81420372 L9.23667188,3.81420372 L9.24813184,13.7226078 C9.24240186,14.2330827 9.8274298,14.4883043 10.1945285,14.1671088 L10.1945285,14.1671088 L12.4773088,12.1768108 C13.8223348,11.0497773 15.6606142,10.9149803 14.4647259,12.3489002 C11.4248283,15.9996581 11.358886,21.9360771 6.1709419,21.944716 C1.15223799,21.9561479 0.162850652,18.4631385 0.154183112,14.1843304 C0.14850987,11.3021497 0.578670019,8.03568045 0.5844,5.13054823 C0.5844,4.27592626 1.88640372,4.27880708 1.88640372,5.13054823 L1.88640372,5.13054823 L1.88640372,11.3480212 C1.88640372,12.1022577 3.03353966,12.1022577 3.03353966,11.3480212 L3.03353966,11.3480212 L3.03353966,3.05996723 C3.03353966,2.20249609 4.32981341,2.20822607 4.33554339,3.05138808 L4.33554339,3.05138808 L4.33554339,9.46387039 C4.33554339,10.2181069 5.48267933,10.2181069 5.48267933,9.46387039 L5.48267933,9.46387039 L5.48267933,0.80010689 C5.48267933,0.619438361 5.5572324,0.455991434 5.67195866,0.338384358 L5.67195866,0.338384358 Z"/>
        </g>
      </g>
    </g>
  </g>
</svg>
