<svg xmlns="http://www.w3.org/2000/svg" width="44" height="45" viewBox="0 0 44 45">
  <g fill="none" fill-rule="evenodd">
    <rect width="44" height="45" fill="#4CD5A0" rx="4.5"/>
    <g transform="translate(5 5)">
      <path fill="#24CC8C" d="M29.7418124,15.184696 C29.9235226,14.5633183 30.2285107,13.0768575 29.5016698,11.7642684 C28.9401496,10.7509667 27.8983444,10.0754323 26.40262,9.75476722 C26.0871568,8.6553848 25.3765629,7.71134679 24.4073705,7.10393587 C23.1859929,6.32650119 21.6610523,6.14051544 20.2266105,6.59158432 C19.5496508,6.80536105 19.000886,7.05405463 18.5805297,7.33552732 C18.4891045,7.39431591 18.4012423,7.45859145 18.3175843,7.52792637 C17.6848052,6.89372209 15.8563017,5.46711876 12.7800546,6.2082114 C12.6902684,6.22602613 10.6494133,6.65215439 9.58338005,8.49277197 C9.0453753,8.42935154 7.76271496,8.37804513 6.72661045,9.11985036 C6.00832067,9.63362708 5.5558266,10.4189002 5.37839192,11.4564299 C4.54608789,11.6531045 2.00000713,12.5253135 2.00000713,15.7918219 C2.00000713,15.8281639 2.0605772,19.3547672 5.62993587,19.8200879 C5.71544656,20.5321069 6.03033967,21.1968812 6.52708551,21.7141496 C7.3821924,22.6084489 8.73611164,23.0616556 10.5482257,23.0616556 L14.8180594,23.0616556 L18.4472755,28.9227007 C18.749342,29.4182352 19.2877743,29.7208005 19.8681781,29.7208005 L21.2620024,29.7208005 C21.5529525,29.7208005 21.8228812,29.569304 21.9745914,29.3211093 C22.1325012,29.0673563 22.1465392,28.7496841 22.0115748,28.4830333 L21.0952565,26.6545297 C21.6425249,26.440753 22.2781544,25.9234133 22.4014323,24.928639 C23.0370618,25.0996603 24.2356366,25.2991853 25.2802922,24.7740071 C25.9992945,24.4127245 26.5123587,23.7763824 26.8095083,22.8884964 C27.5363492,22.9918219 29.3641401,23.1200879 30.6517173,22.0854086 C31.5296983,21.3792328 31.9750665,20.2839834 31.9750665,18.8217506 C31.9715036,18.7155748 31.8837838,16.3640309 29.7418124,15.184696 L29.7418124,15.184696 Z"/>
      <path fill="#FFF" d="M30.2285107,21.5523919 C28.878867,22.6405867 26.6655653,22.1737696 26.6427625,22.1694941 L26.374829,22.1103492 C26.0185344,22.0063112 25.3059454,21.7070238 24.6866342,20.8804204 L24.1422874,21.288734 C24.8434751,22.2257886 25.6615273,22.601323 26.1375368,22.748829 C25.8966817,23.4215131 25.5083207,23.8975226 24.978867,24.1647435 C23.8266105,24.7462162 22.3358741,24.2010855 22.2168717,24.1561924 C22.1598646,24.1269762 21.6361116,23.8370238 21.6845677,22.9112993 L21.0047577,22.8756698 C20.950601,23.923247 21.4451378,24.4433658 21.7394371,24.6571425 C21.7058741,25.5949097 21.1223349,25.9298266 20.7859929,26.0438409 L19.9380119,24.4162874 L19.3337363,24.7298266 L20.301361,26.5918219 L21.4045202,28.7880214 C21.4333088,28.8436033 21.4306722,28.9103017 21.3973943,28.9633183 C21.3694608,29.010848 21.3185107,29.0402779 21.2633563,29.0402779 L19.866753,29.0402779 C19.5222162,29.039209 19.2030475,28.858924 19.0244727,28.5642684 L15.6168717,23.0623682 L17.8715036,23.0623682 L17.8715036,22.3818456 L10.5468005,22.3818456 C8.93563658,22.3818456 7.75131354,22.0020356 7.02661045,21.2538171 C6.57090974,20.7924157 6.30796437,20.1748147 6.29121853,19.5265012 L6.30119477,19.2884964 C6.34095724,18.9684727 6.48090974,18.6691853 6.70095724,18.4333895 C7.09858195,18.0115368 7.75915202,17.7970475 8.66271496,17.7970475 L11.9805297,17.7970475 C12.0482257,18.0984727 12.1130713,18.6293515 11.8821924,19.0675938 C11.7040451,19.4067862 11.3662779,19.6419406 10.878867,19.7666437 L11.047038,20.4265012 C11.7311235,20.2512043 12.2156841,19.8991853 12.4871805,19.3804204 C12.7971568,18.7868337 12.7415748,18.1227007 12.6582019,17.712962 C13.5795796,17.5191378 15.0888432,16.8863587 15.3182969,14.8191378 C15.9646152,14.9253135 17.282905,15.0329145 18.5035701,14.4977601 C18.9331188,15.2595891 19.5289145,15.9148147 20.2465629,16.4146247 C20.1567767,17.048829 19.6323112,19.1744822 16.643,19.1744822 L16.643,19.8557173 C19.7662779,19.8557173 20.6263729,17.7785202 20.8593895,16.7915843 C21.6724537,17.2191378 22.7121211,17.5298266 24.038962,17.5298266 C24.2199596,17.5298266 24.4061591,17.5239121 24.5975606,17.5120119 L24.5548765,16.8329145 C20.9491758,17.0580926 19.4954941,14.933152 19.0964442,14.1785202 C20.0818836,13.5272138 20.70262,12.4683064 20.9406247,11.036715 L20.2685819,10.9255511 C20.0612898,12.1768575 19.5332613,13.0854086 18.700886,13.6269762 C17.1824299,14.6117743 15.1159216,14.0880214 15.0959691,14.0830333 L14.6805297,13.9732945 L14.6684157,14.400848 C14.5914561,17.1150998 12.0646152,17.1158124 11.9513135,17.1186627 L8.66271496,17.1186627 C8.53231116,17.1186627 8.4061829,17.1236508 8.28290499,17.1314893 L8.27007838,17.1314893 C6.58979335,17.1314893 6.29905701,15.101323 6.28694299,15.0143872 L5.61212114,15.1027482 C5.69905701,15.7732945 6.08741805,16.8656936 6.96604038,17.43719 C6.67587411,17.5650285 6.4142114,17.7496603 6.19644418,17.9801829 C5.89943705,18.3022732 5.70539905,18.7057411 5.63919952,19.1388527 C2.74466271,18.7112993 2.68195487,15.9165249 2.68124228,15.7953848 C2.68124228,12.5174751 5.59858195,12.1020356 5.72185986,12.0863587 L5.98409264,12.052867 L5.98409264,12.0457411 C6.45012589,11.9901591 7.51402138,11.9438409 8.27934204,12.521038 C8.80950831,12.9200879 9.10879572,13.5642684 9.16794062,14.4336271 L9.847038,14.3873088 C9.80499525,13.773057 9.65677672,13.2471663 9.4102209,12.8103492 C10.0700784,12.7269762 10.8582019,12.3599929 11.2772043,11.3502542 L10.6487007,11.0894466 C10.18338,12.2110618 9.16865321,12.1711568 8.87292874,12.1341021 C8.81378385,12.0799454 8.75392637,12.0257886 8.68908076,11.9773325 C7.82756057,11.3281639 6.72233492,11.3003729 6.09525653,11.3502542 C6.26414014,10.6112993 6.60475772,10.0497791 7.11710926,9.68137055 C7.7277981,9.24312827 8.4710285,9.14764133 9.0061829,9.14764133 C9.23805938,9.1457886 9.46957957,9.16460095 9.69810689,9.20393587 L9.95321378,9.25666746 L10.070791,9.02436342 C10.943,7.29989786 12.8926437,6.8865962 12.9247102,6.87875772 C15.6831425,6.21391211 17.2900309,7.47091924 17.825114,8.00393587 C17.2608147,8.63528979 16.5952565,9.73196437 16.6465629,11.3659311 L17.3270855,11.3445534 C17.2843302,9.99633492 17.803095,9.07994537 18.2634276,8.5362399 L18.2719786,8.54764133 L18.547038,8.24835392 C18.8911473,7.87210689 19.5446627,7.52650119 20.4304109,7.25072922 C21.673095,6.85951781 22.9878931,7.01842518 24.0375368,7.68683373 C25.521076,8.63172684 25.7812423,10.0946722 25.78338,10.1096366 C25.7882969,10.1374276 26.2209097,12.8402779 24.449342,13.5507292 L24.703095,14.1827957 C26.4646152,13.4759074 26.5615273,11.4343397 26.5059454,10.4873088 C27.6646152,10.7801829 28.4698409,11.321038 28.9023824,12.0977601 C29.4724537,13.1267387 29.2629525,14.3402779 29.111171,14.9110618 C28.655114,14.7421781 27.847038,14.4920594 27.1971568,14.5547672 L27.2684157,15.2317268 C28.0151378,15.1554798 29.1432375,15.6521544 29.1845677,15.6699691 C31.20262,16.6141496 31.2924062,18.7554798 31.2952565,18.8360024 C31.2938314,20.0694941 30.9346865,20.9823207 30.2270143,21.5523919 L30.2285107,21.5523919 Z"/>
      <path stroke="#FFF" stroke-linecap="round" stroke-linejoin="round" stroke-width="3" d="M33,1 L1,34" opacity=".389" transform="matrix(-1 0 0 1 34 0)"/>
    </g>
  </g>
</svg>
