<svg xmlns="http://www.w3.org/2000/svg" width="406" height="191" viewBox="0 0 406 191">
  <g id="FINAL" fill="none" fill-rule="evenodd" stroke="none" stroke-width="1">
    <g id="6.-Taking-action" transform="translate(-523 -144)">
      <g id="doomsday_freeflow_graphic" transform="translate(510.3 115.712)">
        <path id="Combined-Shape" fill="#C15727" d="M245.887937,26 L167.439332,212.888261 C91.7698837,221.024574 31.7623596,204.821364 22.2833231,169.445118 C10.20474,124.367232 84.7427598,65.228325 188.76865,37.3546717 C208.317793,32.1164945 227.517144,28.3552516 245.887937,26 Z" transform="rotate(15 133.444 120.476)"/>
        <path id="Combined-Shape-Copy" fill="#24CC8C" d="M410.40042,32.6919443 L331.951815,219.580205 C256.282367,227.716519 196.274843,211.513308 186.795807,176.137062 C174.717224,131.059176 249.255243,71.9202692 353.281133,44.046616 C372.830277,38.8084388 392.029628,35.0471959 410.40042,32.6919443 Z" transform="rotate(-165 297.956 127.168)"/>
        <path id="Doomsday" fill="#FFF" fill-rule="nonzero" d="M63.7356714,136.288451 L63.7356714,122.288451 L70.0956714,122.288451 C74.6756714,122.288451 77.8156714,125.048451 77.8156714,129.288451 C77.8156714,133.528451 74.6756714,136.288451 70.0956714,136.288451 L63.7356714,136.288451 Z M66.9756714,133.628451 L69.9356714,133.628451 C72.7156714,133.628451 74.5356714,131.968451 74.5356714,129.288451 C74.5356714,126.608451 72.7156714,124.948451 69.9356714,124.948451 L66.9756714,124.948451 L66.9756714,133.628451 Z M84.6985285,136.448451 C81.2785285,136.448451 78.7785285,134.148451 78.7785285,130.908451 C78.7785285,127.668451 81.2785285,125.368451 84.6985285,125.368451 C88.1185285,125.368451 90.5985285,127.668451 90.5985285,130.908451 C90.5985285,134.148451 88.1185285,136.448451 84.6985285,136.448451 Z M84.6985285,133.888451 C86.2585285,133.888451 87.4385285,132.768451 87.4385285,130.908451 C87.4385285,129.048451 86.2585285,127.928451 84.6985285,127.928451 C83.1385285,127.928451 81.9385285,129.048451 81.9385285,130.908451 C81.9385285,132.768451 83.1385285,133.888451 84.6985285,133.888451 Z M97.3413857,136.448451 C93.9213857,136.448451 91.4213857,134.148451 91.4213857,130.908451 C91.4213857,127.668451 93.9213857,125.368451 97.3413857,125.368451 C100.761386,125.368451 103.241386,127.668451 103.241386,130.908451 C103.241386,134.148451 100.761386,136.448451 97.3413857,136.448451 Z M97.3413857,133.888451 C98.9013857,133.888451 100.081386,132.768451 100.081386,130.908451 C100.081386,129.048451 98.9013857,127.928451 97.3413857,127.928451 C95.7813857,127.928451 94.5813857,129.048451 94.5813857,130.908451 C94.5813857,132.768451 95.7813857,133.888451 97.3413857,133.888451 Z M118.644243,125.368451 C121.204243,125.368451 123.044243,126.848451 123.044243,130.128451 L123.044243,136.288451 L119.924243,136.288451 L119.924243,130.608451 C119.924243,128.868451 119.144243,128.068451 117.884243,128.068451 C116.484243,128.068451 115.504243,128.968451 115.504243,130.888451 L115.504243,136.288451 L112.384243,136.288451 L112.384243,130.608451 C112.384243,128.868451 111.644243,128.068451 110.344243,128.068451 C108.964243,128.068451 107.984243,128.968451 107.984243,130.888451 L107.984243,136.288451 L104.864243,136.288451 L104.864243,125.528451 L107.844243,125.528451 L107.844243,126.768451 C108.644243,125.848451 109.844243,125.368451 111.224243,125.368451 C112.724243,125.368451 114.004243,125.948451 114.764243,127.128451 C115.624243,126.028451 117.024243,125.368451 118.644243,125.368451 Z M129.0071,136.448451 C127.1871,136.448451 125.3471,135.948451 124.3471,135.288451 L125.3871,133.048451 C126.3471,133.668451 127.8071,134.088451 129.1271,134.088451 C130.5671,134.088451 131.1071,133.708451 131.1071,133.108451 C131.1071,131.348451 124.6071,133.148451 124.6071,128.848451 C124.6071,126.808451 126.4471,125.368451 129.5871,125.368451 C131.0671,125.368451 132.7071,125.708451 133.7271,126.308451 L132.6871,128.528451 C131.6271,127.928451 130.5671,127.728451 129.5871,127.728451 C128.1871,127.728451 127.5871,128.168451 127.5871,128.728451 C127.5871,130.568451 134.0871,128.788451 134.0871,133.028451 C134.0871,135.028451 132.2271,136.448451 129.0071,136.448451 Z M143.389957,121.448451 L146.509957,121.448451 L146.509957,136.288451 L143.529957,136.288451 L143.529957,135.048451 C142.749957,135.988451 141.609957,136.448451 140.169957,136.448451 C137.129957,136.448451 134.789957,134.288451 134.789957,130.908451 C134.789957,127.528451 137.129957,125.368451 140.169957,125.368451 C141.489957,125.368451 142.609957,125.788451 143.389957,126.668451 L143.389957,121.448451 Z M140.709957,133.888451 C142.249957,133.888451 143.449957,132.768451 143.449957,130.908451 C143.449957,129.048451 142.249957,127.928451 140.709957,127.928451 C139.149957,127.928451 137.949957,129.048451 137.949957,130.908451 C137.949957,132.768451 139.149957,133.888451 140.709957,133.888451 Z M153.272814,125.368451 C156.552814,125.368451 158.452814,126.888451 158.452814,130.148451 L158.452814,136.288451 L155.532814,136.288451 L155.532814,134.948451 C154.952814,135.928451 153.832814,136.448451 152.252814,136.448451 C149.732814,136.448451 148.232814,135.048451 148.232814,133.188451 C148.232814,131.288451 149.572814,129.968451 152.852814,129.968451 L155.332814,129.968451 C155.332814,128.628451 154.532814,127.848451 152.852814,127.848451 C151.712814,127.848451 150.532814,128.228451 149.752814,128.848451 L148.632814,126.668451 C149.812814,125.828451 151.552814,125.368451 153.272814,125.368451 Z M153.032814,134.348451 C154.072814,134.348451 154.972814,133.868451 155.332814,132.888451 L155.332814,131.788451 L153.192814,131.788451 C151.732814,131.788451 151.272814,132.328451 151.272814,133.048451 C151.272814,133.828451 151.932814,134.348451 153.032814,134.348451 Z M168.295671,125.528451 L171.295671,125.528451 L166.435671,136.948451 C165.395671,139.548451 163.915671,140.328451 161.975671,140.328451 C160.875671,140.328451 159.675671,139.968451 158.975671,139.348451 L160.115671,137.128451 C160.595671,137.548451 161.255671,137.808451 161.875671,137.808451 C162.735671,137.808451 163.215671,137.428451 163.635671,136.468451 L163.675671,136.368451 L159.015671,125.528451 L162.235671,125.528451 L165.255671,132.828451 L168.295671,125.528451 Z"/>
        <path id="Freefow" fill="#FFF" fill-rule="nonzero" d="M245.815671,124.888451 L238.475671,124.888451 L238.475671,128.588451 L244.955671,128.588451 L244.955671,131.188451 L238.475671,131.188451 L238.475671,136.288451 L235.235671,136.288451 L235.235671,122.288451 L245.815671,122.288451 L245.815671,124.888451 Z M250.118529,126.948451 C250.878529,125.908451 252.158529,125.368451 253.818529,125.368451 L253.818529,128.248451 C253.558529,128.228451 253.358529,128.208451 253.118529,128.208451 C251.398529,128.208451 250.258529,129.148451 250.258529,131.208451 L250.258529,136.288451 L247.138529,136.288451 L247.138529,125.528451 L250.118529,125.528451 L250.118529,126.948451 Z M265.661386,130.948451 C265.661386,131.188451 265.621386,131.528451 265.601386,131.788451 L257.461386,131.788451 C257.761386,133.128451 258.901386,133.948451 260.541386,133.948451 C261.681386,133.948451 262.501386,133.608451 263.241386,132.908451 L264.901386,134.708451 C263.901386,135.848451 262.401386,136.448451 260.461386,136.448451 C256.741386,136.448451 254.321386,134.108451 254.321386,130.908451 C254.321386,127.688451 256.781386,125.368451 260.061386,125.368451 C263.221386,125.368451 265.661386,127.488451 265.661386,130.948451 Z M260.081386,127.728451 C258.661386,127.728451 257.641386,128.588451 257.421386,129.968451 L262.721386,129.968451 C262.501386,128.608451 261.481386,127.728451 260.081386,127.728451 Z M277.824243,130.948451 C277.824243,131.188451 277.784243,131.528451 277.764243,131.788451 L269.624243,131.788451 C269.924243,133.128451 271.064243,133.948451 272.704243,133.948451 C273.844243,133.948451 274.664243,133.608451 275.404243,132.908451 L277.064243,134.708451 C276.064243,135.848451 274.564243,136.448451 272.624243,136.448451 C268.904243,136.448451 266.484243,134.108451 266.484243,130.908451 C266.484243,127.688451 268.944243,125.368451 272.224243,125.368451 C275.384243,125.368451 277.824243,127.488451 277.824243,130.948451 Z M272.244243,127.728451 C270.824243,127.728451 269.804243,128.588451 269.584243,129.968451 L274.884243,129.968451 C274.664243,128.608451 273.644243,127.728451 272.244243,127.728451 Z M284.2871,123.748451 C283.3671,123.748451 282.8671,124.248451 282.8671,125.308451 L282.8671,125.768451 L285.6271,125.768451 L285.6271,128.168451 L282.9471,128.168451 L282.9471,136.288451 L279.8271,136.288451 L279.8271,128.168451 L278.1671,128.168451 L278.1671,125.768451 L279.8271,125.768451 L279.8271,125.288451 C279.8271,122.868451 281.3071,121.288451 283.9871,121.288451 C284.8671,121.288451 285.7871,121.468451 286.3671,121.868451 L285.5471,124.128451 C285.2071,123.888451 284.7671,123.748451 284.2871,123.748451 Z M287.1871,121.448451 L290.3071,121.448451 L290.3071,136.288451 L287.1871,136.288451 L287.1871,121.448451 Z M297.869957,136.448451 C294.449957,136.448451 291.949957,134.148451 291.949957,130.908451 C291.949957,127.668451 294.449957,125.368451 297.869957,125.368451 C301.289957,125.368451 303.769957,127.668451 303.769957,130.908451 C303.769957,134.148451 301.289957,136.448451 297.869957,136.448451 Z M297.869957,133.888451 C299.429957,133.888451 300.609957,132.768451 300.609957,130.908451 C300.609957,129.048451 299.429957,127.928451 297.869957,127.928451 C296.309957,127.928451 295.109957,129.048451 295.109957,130.908451 C295.109957,132.768451 296.309957,133.888451 297.869957,133.888451 Z M319.612814,125.528451 L322.372814,125.528451 L318.472814,136.288451 L315.472814,136.288451 L313.052814,129.608451 L310.552814,136.288451 L307.552814,136.288451 L303.672814,125.528451 L306.612814,125.528451 L309.152814,132.808451 L311.792814,125.528451 L314.432814,125.528451 L316.992814,132.808451 L319.612814,125.528451 Z"/>
      </g>
    </g>
  </g>
</svg>
