<svg xmlns="http://www.w3.org/2000/svg" xmlns:xlink="http://www.w3.org/1999/xlink" width="45" height="45" viewBox="0 0 45 45">
  <defs>
    <polygon id="path-1" points="0 .006 37.966 .006 37.966 17.789 0 17.789"/>
  </defs>
  <g id="OLD" fill="none" fill-rule="evenodd" stroke="none" stroke-width="1">
    <g id="Test-Copy-25" transform="translate(-623 -500)">
      <g id="SM-demand-responsive" transform="translate(623 500)">
        <rect id="Rectangle-Copy-27" width="45" height="45" x="0" y="0" fill="#FFB963" rx="4.5"/>
        <g id="Group-12" transform="translate(4 14)">
          <g id="Group-3" transform="translate(0 .036)">
            <mask id="mask-2" fill="#fff">
              <use xlink:href="#path-1"/>
            </mask>
            <path id="Fill-1" fill="#354052" d="M36.0078396,14.0309237 C36.0375297,14.0263303 35.8712901,14.046416 35.8426022,14.0495062 C35.745389,14.0600292 35.647967,14.0686732 35.5505033,14.0769413 C35.3440505,14.0943127 35.1371802,14.1065479 34.9302681,14.1169457 C34.3748835,14.144882 33.8179538,14.1556138 33.2615253,14.1522732 C33.2596879,14.1410402 33.2576418,14.129849 33.2556374,14.1186578 C33.2548022,14.1139391 33.2540505,14.1092622 33.2531736,14.1045853 C33.1076462,13.2938908 32.6612505,12.5874248 31.985978,12.0772226 C31.5017077,11.7113787 30.900389,11.5170776 30.2929736,11.4915215 C30.2265363,11.4880556 30.1597231,11.4859259 30.0922835,11.4866358 C29.7504088,11.490227 29.4225231,11.5519875 29.1159341,11.6607677 C29.0820681,11.6725018 29.0484527,11.6848622 29.0150879,11.697682 C29.0145868,11.6979325 29.0140857,11.6980996 29.0135429,11.6983084 C28.1237582,12.0423127 27.4466901,12.7823523 27.1437758,13.6858754 C27.0781736,13.8815127 27.0350374,14.0806996 27.0126549,14.2806798 C23.3455714,14.2806798 19.6785297,14.2803457 16.0114879,14.2798029 C14.5661934,14.2795941 13.1209407,14.279093 11.6757714,14.2789677 C11.5038527,14.2789677 11.3319341,14.2790095 11.1600571,14.2790095 C11.0523209,13.3951963 10.5852967,12.6205809 9.86363077,12.0761369 C9.38128132,11.7122974 8.78296923,11.5182886 8.17826813,11.4917303 C8.14816044,11.4899347 8.11821978,11.4875963 8.08794505,11.4866358 C7.62589011,11.4720204 7.18592527,11.5654754 6.78755165,11.7413193 C6.76646374,11.7504226 6.74545934,11.759693 6.72458022,11.7692556 C6.71898462,11.7718446 6.71338901,11.7743501 6.70779341,11.7770226 C5.90081538,12.1517193 5.28993407,12.8613171 5.01441319,13.713227 C4.96768571,13.8575853 4.93344396,14.0037809 4.91022637,14.1506029 C4.58492967,14.1120182 4.25566593,14.0439941 3.93955604,13.9992292 C3.57183297,13.9472402 3.2044022,13.8924534 2.83743077,13.8348688 C2.44757582,13.7736512 2.05792967,13.7097193 1.6702044,13.6362248 C1.51912308,13.6075787 1.36958681,13.5780974 1.22393407,13.5271941 C1.17829231,13.5112842 1.15181758,13.4951237 1.07857363,13.4519875 C1.06283077,13.4423413 1.04771429,13.4317347 1.03251429,13.4213787 C1.05330989,13.4337391 0.98658022,13.381249 0.979314286,13.3743589 C0.972131868,13.36726 0.965659341,13.3595347 0.958769231,13.352227 C0.959061538,13.3507237 0.925696703,13.3097589 0.918096703,13.2975655 C0.908116484,13.2814468 0.901518681,13.2717171 0.896925275,13.2655787 C0.896173626,13.2591479 0.893375824,13.2468292 0.886861538,13.2251149 C0.882894505,13.2117105 0.879804396,13.2025237 0.877298901,13.1956336 C0.877841758,13.1884095 0.878050549,13.177427 0.877591209,13.1603479 C0.877173626,13.1458578 0.876589011,13.1359193 0.875879121,13.1287369 C0.877925275,13.1218886 0.880389011,13.1126182 0.883479121,13.0990051 C0.888114286,13.0805897 0.893501099,13.0624248 0.899597802,13.044427 C0.900892308,13.0419633 0.901978022,13.0399171 0.903564835,13.036827 C0.912918681,13.0191215 0.923024176,13.0017501 0.933756044,12.9849215 C0.935927473,12.9813721 0.937389011,12.9788666 0.938975824,12.9761105 C0.95238022,12.9610776 0.998314286,12.9227435 1.01601978,12.9065831 C1.04842418,12.8889611 1.09323077,12.8664534 1.09097582,12.8649501 C1.12684615,12.8535919 1.16376044,12.8456578 1.20071648,12.8387677 C1.09039121,12.8616095 1.39150989,12.8558051 1.27208132,12.8387259 C1.54158901,12.8773105 1.8369033,12.7287765 1.82713187,12.4159237 C1.82567033,12.3687787 1.82412527,12.3215084 1.82262198,12.2743215 L2.29966813,12.2743215 C2.82419341,12.2743215 3.28432747,11.9587127 3.28432747,11.3901325 L3.28432747,9.6655589 C3.28528791,9.65040066 3.28541319,9.63503363 3.28432747,9.6194578 C3.28432747,9.57757429 3.27902418,9.53911495 3.27008791,9.50341165 C3.21513407,9.18487978 3.02375604,8.91583143 2.70209231,8.80404462 C2.54458022,8.7492578 2.38343516,8.75485341 2.21999341,8.75485341 L1.72691209,8.75485341 C1.70954066,6.93202264 1.77898462,5.11758527 2.10812308,3.39472374 C2.19581538,2.93584242 2.30384396,2.47779626 2.45905934,2.03670396 C2.48018901,1.97653033 2.50265495,1.91689956 2.52629011,1.85768637 C2.53059121,1.84808198 2.53476703,1.83839407 2.53915165,1.82883143 C2.55334945,1.79772154 2.5677978,1.76627758 2.58479341,1.73658747 C2.70121538,1.53406 2.63832747,1.2518578 2.42749011,1.13673033 C2.37742198,1.10933692 2.32802198,1.0808578 2.27908132,1.05166879 C2.32246813,1.04227319 2.36606374,1.03371275 2.40978462,1.02590396 C2.43045495,1.02222923 2.5150989,1.00999407 2.54236703,1.00569297 C2.65866374,0.991411648 2.77541978,0.98067978 2.8923011,0.972244615 C3.06814505,0.959508352 3.24453187,0.952451209 3.42083516,0.950238022 C5.87697143,0.920213846 8.3313956,0.87498967 10.7879912,0.886264396 C14.2415648,0.902132527 17.6962242,0.968945714 21.1473341,1.10545341 C22.5041011,1.15911275 23.8687604,1.20584022 25.1899495,1.54867538 C25.3736022,1.59632154 25.555167,1.65169297 25.734644,1.71303582 C25.8179516,1.74151495 25.9003824,1.77254132 25.9824791,1.80452813 C25.9851934,1.8056556 26.0381429,1.82749516 26.0557648,1.83455231 C26.0986923,1.85317648 26.1413692,1.87234352 26.1837538,1.89209516 C26.3241868,1.95723802 26.4604857,2.03077429 26.5932352,2.11036549 C26.655622,2.14778088 26.7164637,2.18782703 26.7766791,2.22879187 C26.8059516,2.24875231 26.8346396,2.26950615 26.8633275,2.29030176 C26.8732242,2.29748418 26.8782769,2.30099187 26.8806989,2.30253692 C26.8869626,2.3077567 26.8965253,2.31552374 26.9116,2.32771714 C27.3162791,2.65439187 27.6890549,3.02837868 28.0705582,3.3813611 C29.1467516,4.37729516 30.2166396,5.38011934 31.2859429,6.38356989 C31.5688967,6.64915231 31.8518505,6.91481824 32.1345121,7.18069297 C32.2003231,7.24257868 32.2695165,7.28738527 32.3565824,7.32033253 C32.6562813,7.43374791 32.9536835,7.55250835 33.247244,7.68108198 C33.7042044,7.88135451 34.1518527,8.10355011 34.585178,8.35084242 C34.8971956,8.52889956 35.2005692,8.72361824 35.4876989,8.9397589 C35.5091209,8.9569633 35.5701297,9.00473473 35.586833,9.01851495 C35.6173165,9.04361165 35.6470901,9.06971055 35.6768637,9.09576769 L35.3666418,9.09576769 C34.9578286,9.09576769 34.5560308,9.27987978 34.2916593,9.59143802 C33.9917934,9.94483802 33.9068989,10.3789149 33.9834418,10.8286095 C34.061989,11.2899545 34.4452044,11.6774292 34.8685495,11.8404952 C35.0947538,11.9276864 35.3278066,11.9333655 35.5655363,11.9333655 L36.3238242,11.9333655 C36.325411,12.0033523 36.3263297,12.0732556 36.3262462,12.1430336 C36.3260791,12.3691963 36.5261429,12.5984908 36.7647077,12.5814952 C36.789178,12.5787391 36.8137319,12.5779875 36.8382857,12.5784051 C36.8433802,12.5796996 36.8502703,12.5813281 36.8584132,12.583249 C36.8617956,12.5850446 36.8651363,12.5867985 36.8693121,12.5889699 C36.8746154,12.5918512 36.878833,12.5940226 36.8828418,12.5960688 C36.8869758,12.6007457 36.8930308,12.6070095 36.9025099,12.6159457 C36.9129077,12.6263853 36.9222615,12.6377018 36.932033,12.6486842 C36.9182527,12.6358226 36.9656066,12.6996292 36.971411,12.7092754 C36.9821429,12.7268974 37.0216044,12.8142138 37.0293297,12.8275765 C37.0440286,12.8679567 37.0568484,12.9090051 37.0677055,12.9505127 C37.065033,12.9536029 37.0831143,13.0673941 37.0838659,13.0780007 C37.0906725,13.1734182 37.0869143,13.2691699 37.0791055,13.3643787 C37.0819033,13.3301369 37.0568484,13.4639303 37.0512945,13.4853105 C37.0436527,13.5130798 37.034967,13.5404732 37.0252374,13.567616 C37.0239011,13.5716666 37.0229824,13.5745062 37.0218549,13.5779303 C37.0186396,13.5829831 37.0136703,13.5918776 37.0059033,13.6071193 C36.9960901,13.6264116 36.9412198,13.702871 36.934956,13.7153149 C36.911989,13.7403281 36.887811,13.7641721 36.8625055,13.7867633 C36.8583297,13.7893941 36.8534022,13.7925677 36.8475143,13.796493 C36.8254659,13.8110666 36.8022066,13.8237611 36.7787385,13.8359127 C36.7778198,13.8361215 36.7774022,13.8362051 36.7764418,13.8364974 C36.7268747,13.8501523 36.6838637,13.8697369 36.6468242,13.8936226 C36.6444857,13.8944996 36.6427736,13.8950842 36.6401429,13.8960446 C36.5817648,13.9172578 36.5214242,13.9330007 36.4612088,13.9481589 C36.3122989,13.9856996 36.1598813,14.00946 36.0078396,14.0309237 L36.0078396,14.0309237 Z M31.0485055,16.7361897 C30.2637429,17.1014073 29.2753253,16.9089435 28.6374264,16.3424095 C28.0599934,15.8295347 27.8083165,15.0768007 27.8996418,14.339893 C28.0014901,13.6391479 28.4129341,13.0339457 28.9980505,12.6836776 C29.1978637,12.568049 29.4152571,12.4799809 29.6419209,12.4227721 C29.786822,12.3888644 29.9373604,12.3684864 30.092367,12.3636007 C30.6368945,12.3463963 31.1425033,12.5309677 31.5431319,12.84666 C31.546556,12.849416 31.5501055,12.8519633 31.5534462,12.8547193 C31.5549912,12.8559303 31.5564527,12.8572666 31.5579978,12.8585193 C32.0766769,13.2871677 32.4172571,13.9413523 32.4279473,14.6395084 C32.4151692,15.5667919 31.8820418,16.3482556 31.0485055,16.7361897 L31.0485055,16.7361897 Z M8.92761978,16.7361897 C8.1428989,17.1014073 7.15443956,16.9089435 6.51654066,16.3424095 C5.89137802,15.7872754 5.64604835,14.9481435 5.80903077,14.1527325 C6.04325275,13.1133281 6.98130989,12.3519084 8.08802857,12.3636007 C8.48176703,12.3677347 8.84719341,12.4775589 9.16326154,12.664093 C9.59224396,12.9237875 9.93629011,13.3255018 10.1310923,13.7943633 C10.1343912,13.8024644 10.1379824,13.8104402 10.1411978,13.8185831 C10.1466264,13.8320292 10.1514286,13.8457677 10.1566066,13.8593809 C10.2535692,14.118616 10.3061011,14.3973105 10.3055624,14.6838974 C10.2743648,15.5921391 9.74946374,16.3536842 8.92761978,16.7361897 L8.92761978,16.7361897 Z M2.40907473,11.4034116 C2.41583956,11.3900073 2.27423736,11.3973985 2.23995385,11.3973985 L1.79422637,11.3973985 C1.77948571,10.9578512 1.7647033,10.5182622 1.7523011,10.0786732 C1.74829231,9.9297633 1.74457582,9.78076989 1.74123516,9.63177648 L1.95917143,9.63177648 L2.35437143,9.63177648 C2.39571209,9.63177648 2.40619341,9.64058747 2.4074044,9.62814352 L2.4074044,11.2731677 C2.4074044,11.3002688 2.41107912,11.3993193 2.40907473,11.4034116 L2.40907473,11.4034116 Z M36.058367,9.97273253 C36.1504022,10.3289303 36.2142088,10.6910578 36.2568857,11.0564424 L35.809989,11.0564424 C35.4428923,11.0564424 35.0744176,11.1108952 34.8687165,10.7324402 C34.6489011,10.3281369 35.0601363,9.97273253 35.4176286,9.97273253 L36.058367,9.97273253 Z M37.1960703,11.7720534 C37.1728945,11.1537809 37.0909231,10.5291611 36.9514505,9.92821824 C36.9512835,9.92755011 36.9511165,9.92688198 36.9509912,9.92621385 C36.933578,9.8512578 36.9155385,9.77655231 36.8963297,9.70243143 C36.7790725,9.24927099 36.6439011,8.77794571 36.2844879,8.46417429 C35.2653363,7.57451495 33.9673231,7.00121604 32.7139077,6.52224901 C31.0608659,4.96650396 29.4166769,3.39827319 27.7292681,1.87994352 C26.5249187,0.796233626 24.8718769,0.507892967 23.3105363,0.351341319 C22.3032022,0.250328132 21.2838418,0.23162044 20.2718308,0.195875385 C16.2304264,0.0531457143 12.1853055,-0.00874 8.14143736,0.00884021978 C6.88956703,0.0142687912 5.6376967,0.0288841758 4.38603516,0.0532292308 C3.87011209,0.0632512088 3.34992967,0.0604534066 2.83475824,0.0996226374 C2.35336923,0.136202857 1.78604176,0.177292967 1.39522637,0.492317143 C1.15578462,0.685365495 1.12137582,1.00978527 1.25011648,1.27407319 C1.33254725,1.4433611 1.48041319,1.57753033 1.64276923,1.68931714 C1.51461319,2.02309077 1.43214066,2.3847589 1.35534725,2.71882484 C0.979815385,4.35340945 0.882769231,6.0570622 0.854624176,7.7285611 C0.846523077,8.21095231 0.848610989,8.69338527 0.855793407,9.17581824 C0.855626374,9.1816644 0.855041758,9.18738527 0.855125275,9.19331495 C0.85596044,9.24893692 0.857547253,9.3045589 0.858591209,9.36018088 C0.860846154,9.48771055 0.86356044,9.61524022 0.866525275,9.74276989 C0.867861538,9.79889297 0.869030769,9.85501604 0.870492308,9.91113912 C0.88823956,10.6134292 0.913795604,11.3156358 0.93718022,12.0176336 C0.448859341,12.1351831 0.0628461538,12.5055787 0.00592967033,13.0704842 C-0.0749978022,13.8737457 0.685920879,14.3325435 1.36804176,14.4685084 C1.70515604,14.5356556 2.04485934,14.5905677 2.3841033,14.6453963 C2.78226813,14.7097457 3.1811011,14.7695018 3.58030989,14.8269193 C3.85052747,14.8657963 4.12103736,14.9030029 4.39158901,14.9394578 C4.55832967,14.9619237 4.72987253,14.9937435 4.90133187,15.0187149 C4.98196703,15.6217457 5.23807033,16.2009325 5.62696484,16.680693 C6.43223077,17.6738292 7.86186593,18.032616 9.05636044,17.6220073 C10.1626615,17.2417149 10.9358571,16.2773084 11.1340835,15.156016 C11.9796879,15.1559325 12.8253341,15.1561413 13.6709385,15.1563501 C16.3015407,15.156893 18.9321429,15.157227 21.5626615,15.1573941 C23.3896681,15.1575193 25.216633,15.1576029 27.0435978,15.1576864 C27.1431077,15.7105655 27.3893143,16.2383479 27.7478923,16.680693 C28.5531165,17.6738292 29.9827516,18.032616 31.1772044,17.6220073 C32.3227582,17.2281853 33.1169165,16.2038974 33.2756396,15.0291963 C33.8625099,15.0322446 34.4497978,15.0193413 35.0357077,14.988482 C35.4504505,14.9666842 35.863356,14.9296029 36.2747582,14.871893 C36.5375429,14.8349369 36.8061736,14.7846182 37.0478703,14.6704095 C37.6276418,14.4881347 37.9140615,13.8771699 37.9604132,13.3111369 C38.0073495,12.7375875 37.7438549,11.9997611 37.1960703,11.7720534 L37.1960703,11.7720534 Z" mask="url(#mask-2)"/>
          </g>
          <path id="Fill-4" fill="#354052" d="M24.0016101,7.04086967 C23.6735991,7.03435538 23.3455046,7.0278411 23.0174519,7.02132681 C23.0026695,7.02103451 22.987887,7.0207422 22.9730629,7.02044989 C22.9351046,7.01969824 22.9272123,7.01656637 22.9223684,7.00942571 C22.922076,7.00721253 22.9217837,7.00466527 22.9213662,7.00170044 C22.9214914,7.00178396 22.9216167,7.00190923 22.9217002,7.00199275 C22.929676,7.01673341 22.9302189,7.01598176 22.9273376,7.00758835 C22.9460453,7.02587846 22.9360651,7.01335099 22.9231618,6.99589604 C22.9218673,6.99234659 22.9204057,6.98854659 22.9189442,6.98445429 C22.9150189,6.95681033 22.9095486,6.91839275 22.9083376,6.89701253 C22.9026585,6.79470484 22.8983156,6.69235538 22.8938475,6.59000593 C22.8439464,5.43409604 22.8083684,4.27747626 22.7708695,3.12110703 C22.7706189,3.11346527 22.7703684,3.10578176 22.7701178,3.09814 C22.7695332,3.08018396 22.7689486,3.06844989 22.7685727,3.06014 C22.8224409,3.05692462 22.8876673,3.05191363 22.9148519,3.05283231 C23.460298,3.07141473 24.0000233,3.1761444 24.527764,3.3099378 C24.6798892,3.34852242 24.8309705,3.39132462 24.9808826,3.43771802 C24.9878145,3.43988945 24.9946629,3.44218615 25.0015947,3.44439934 C24.9893178,3.44168505 25.0863222,3.47734659 25.1250738,3.49718176 C25.3869398,3.63126747 25.6293464,3.80385429 25.86432,3.97965648 C25.8673266,3.98191143 25.9181046,4.02066308 25.9278343,4.02784549 C25.9539749,4.04822352 25.9800738,4.06868505 26.0060892,4.08927187 C26.074531,4.14334879 26.1420958,4.19851143 26.2094101,4.25388286 C26.3630387,4.38020154 26.5136607,4.51006967 26.6629881,4.64139934 C26.9656519,4.90748286 27.2605068,5.18241912 27.5515618,5.46107187 C28.0891991,5.97582571 28.6114277,6.50674 29.1246782,7.04579714 C29.1558716,7.0785356 29.1866475,7.11164989 29.2177574,7.14443011 L24.0016101,7.04086967 Z M22.9697779,7.04540044 C22.9711712,7.05173377 22.9726912,7.05882711 22.9739579,7.06389377 C22.9668645,7.05046711 22.9582512,7.03400044 22.9377312,7.01297377 C22.9498912,7.02526044 22.9604045,7.03602711 22.9697779,7.04540044 L22.9697779,7.04540044 Z M22.8222126,3.06464363 C22.8200593,3.06667029 22.8172726,3.06971029 22.8149926,3.07199029 C22.8196793,3.05717029 22.8246193,3.03981696 22.8304459,3.01790363 C22.8247459,3.03969029 22.8225926,3.05400363 22.8222126,3.06464363 L22.8222126,3.06464363 Z M30.5523925,7.29321473 C29.8655947,6.5315444 29.1496914,5.79396857 28.4160826,5.07748066 C27.8526804,4.52719055 27.2744958,3.98888505 26.659731,3.49597077 C26.2169684,3.14102571 25.7397552,2.75488725 25.1892145,2.58451363 C24.7696695,2.45468725 24.3398101,2.35693121 23.9068189,2.28435538 C23.6033618,2.23349385 23.2968563,2.19766527 22.9896826,2.17945868 C22.8183068,2.16931143 22.6299354,2.15285868 22.4639046,2.21031802 C21.8272585,2.43063451 21.8928607,3.09329604 21.9107332,3.63252022 C21.9332409,4.31288725 21.9564167,4.99325429 21.9812629,5.6735378 C21.9977574,6.12502791 21.9825156,6.59397297 22.0419376,7.04258176 C22.1098365,7.55566527 22.4647815,7.84592681 22.9730629,7.89741473 C23.0340716,7.90359495 23.097753,7.89987846 23.1589705,7.90108945 C23.5790167,7.9094411 23.9990211,7.91775099 24.4190673,7.92610264 L28.3699815,8.00452462 C28.9549727,8.01613341 29.5400057,8.0277422 30.1249552,8.03935099 C30.1972804,8.06031363 30.2707749,8.05622132 30.339509,8.03413121 C30.5433727,7.99692462 30.6516519,7.82817956 30.6647222,7.6490367 C30.6826365,7.5317378 30.6534057,7.40525209 30.5523925,7.29321473 L30.5523925,7.29321473 Z"/>
          <path id="Fill-6" fill="#354052" d="M20.8938755,3.32727304 C20.8950155,3.31047571 20.8971688,3.27043679 20.9009688,3.20060637 C20.9005888,3.20483212 20.9003355,3.20895222 20.9000821,3.21307232 C20.8980555,3.25110401 20.8959021,3.28924135 20.8938755,3.32727304"/>
          <path id="Fill-8" fill="#354052" d="M19.6938953,2.93497733 C19.710742,2.93763733 19.7250553,2.93941066 19.7410153,2.94169066 C19.722902,2.93928399 19.706562,2.93700399 19.6938953,2.93497733 M19.9517747,3.75144352 C19.9325659,4.10292264 19.9108934,4.45423473 19.8885945,4.80550505 C19.8495505,5.42143912 19.8077923,6.03724791 19.764656,6.65288967 C19.7597286,6.72325231 19.7547593,6.79361495 19.7497901,6.86397758 L19.7497901,6.86435341 C19.7487879,6.86510505 19.747744,6.86589846 19.7467,6.86669187 C19.7446538,6.84092703 19.7364275,6.86038637 19.7332956,6.87704791 C19.7324604,6.87771604 19.7315835,6.87834242 19.7307484,6.87901055 C19.7234407,6.87805011 19.6778407,6.89370945 19.643056,6.90465011 C19.6241396,6.90368967 19.5235022,6.91392044 19.4891352,6.91103912 C19.4738099,6.90978637 19.4586934,6.90961934 19.443744,6.91037099 C17.9771945,6.88844791 16.5106451,6.86652484 15.0440956,6.84460176 C12.3762033,6.80472264 9.70831099,6.76484352 7.04041868,6.7249644 C5.97796374,6.70909626 4.91550879,6.69318637 3.85305385,6.67731824 C3.88633516,5.70042593 3.97406923,4.72528747 4.09128462,3.75520176 C4.10105604,3.67431604 4.11124505,3.59347209 4.12155934,3.51266989 C4.12485824,3.48682154 4.14001648,3.37277978 4.14114396,3.36355121 C4.14807582,3.31377538 4.1558011,3.26454242 4.16803626,3.21535121 C4.20783187,3.05520835 4.26332857,2.97469846 4.37565824,2.87301714 C4.35837033,2.8902633 4.42756374,2.83626989 4.4354978,2.8312589 C4.45591758,2.8183556 4.4772978,2.8069556 4.49884505,2.79593143 C4.49195495,2.80006549 4.55079231,2.77250505 4.56357033,2.76799516 C4.6054956,2.75321275 4.64875714,2.74223033 4.69189341,2.73174901 C4.7171989,2.72561055 4.74292198,2.72097538 4.76856154,2.71646549 C4.77010659,2.71629846 4.77106703,2.7162567 4.77286264,2.71604791 C4.81399451,2.71199736 4.85537692,2.71053582 4.89667582,2.71020176 C5.05673516,2.70882374 5.21725385,2.71228967 5.37743846,2.71228967 C6.02765604,2.71241495 6.67791538,2.71304132 7.32813297,2.71416879 C8.44808901,2.71608967 9.56808681,2.71972264 10.6880011,2.72565231 C13.2009703,2.73893143 15.7154846,2.75158418 18.2274516,2.83004791 C18.6401901,2.84295121 19.0531374,2.85689846 19.4652912,2.88303912 C19.5446319,2.88809187 19.6240978,2.8935622 19.7032714,2.90112044 C19.755678,2.90613143 19.7623176,2.90663253 19.7502077,2.90517099 C19.814933,2.91118418 19.8600736,2.91135121 19.9318143,2.93010066 C19.9382451,2.93227209 19.9439659,2.93419297 19.9488934,2.9358633 C19.9534033,2.93803473 19.9576626,2.94003912 19.9610451,2.94154242 C19.9635505,2.94400615 19.966056,2.94655341 19.9693967,2.94968527 C19.9718187,2.95427868 19.9743242,2.95924791 19.9767044,2.9642589 C19.9813813,2.98446989 19.9858077,3.00914901 19.9888508,3.02543473 C19.9891066,3.04881934 19.9886055,3.07224571 19.987144,3.09550505 C19.9868099,3.10034901 19.9866011,3.10402374 19.9865176,3.1071556 C19.9804626,3.16670286 19.9781242,3.22599956 19.9754516,3.28646549 C19.968478,3.44151385 19.9602516,3.59647868 19.9517747,3.75144352 M19.7896142,6.87944706 C19.7918942,6.87760428 19.7932876,6.87634344 19.7954409,6.87450066 C19.7925276,6.90708871 19.7893609,6.93957978 19.7863209,6.97207085 L19.7836609,7.00116733 C19.7888542,6.94501112 19.7903742,6.90660377 19.7896142,6.87944706 M4.18381879,3.40428985 C4.18318546,3.40808985 4.18229879,3.41467652 4.18166546,3.42012319 C4.18229879,3.41492985 4.18305879,3.40960985 4.18381879,3.40428985 M20.5378099,2.28468527 C20.4302824,2.19791165 20.3352407,2.15080835 20.2068341,2.09831824 C20.163489,2.08061275 20.1168033,2.07205231 20.0711198,2.06307429 C20.0149132,2.05539077 19.9586648,2.04779077 19.9024582,2.04031604 C19.827711,2.03133802 19.8281703,2.03442813 19.9038363,2.04966989 C19.9005374,2.04900176 19.8971967,2.04858418 19.893856,2.04808308 C19.2937066,1.96147648 18.6758516,1.96627868 18.0714429,1.94828088 C15.4476473,1.87015121 12.8214714,1.85862593 10.1967571,1.84614022 C9.03926044,1.84066989 7.88176374,1.83770505 6.72426703,1.83620176 C6.13785604,1.83545011 5.53937692,1.87061055 4.9543022,1.83453143 C4.72488242,1.82037538 4.47775714,1.86443033 4.26416374,1.94669407 C3.82069121,2.11748527 3.52554396,2.43718637 3.35533736,2.87761055 C3.2699,3.0987622 3.26455495,3.35519956 3.23515714,3.58733363 C3.10011099,4.65400615 3.00519451,5.72756879 2.97187143,6.80242593 C2.9686978,6.90456659 2.96673516,7.00674901 2.96492038,7.10893143 C2.96084725,7.35062813 3.16763407,7.54388527 3.40344286,7.54739297 C4.88510879,7.56952484 6.36677473,7.59169846 7.84844066,7.61383033 C10.516333,7.65370945 13.1842253,7.69358857 15.8521176,7.73346769 C17.0644429,7.75171604 18.2767681,7.76983912 19.4890934,7.7879622 C19.8054121,7.81422813 20.1236934,7.70569846 20.3616319,7.50024791 C20.5829505,7.3091622 20.6154802,7.02332703 20.634522,6.75302593 C20.6852165,6.03445011 20.7336978,5.31570725 20.7786297,4.5967556 C20.8035176,4.19930066 20.8271945,3.8017622 20.8468209,3.40401495 C20.8493264,3.35290286 20.8514978,3.30179077 20.8537945,3.25067868 C20.8530011,3.26441714 20.8539198,3.24003033 20.8558407,3.20553802 C20.8562582,3.19597538 20.8567176,3.18641275 20.8571352,3.17685011 C20.8567176,3.18586989 20.8564253,3.19334462 20.856133,3.20061055 C20.8578033,3.17041934 20.8601835,3.13408967 20.8628978,3.10907648 C20.8762187,2.98480396 20.8564253,2.85251385 20.8240209,2.73296 C20.7780451,2.56329626 20.6747769,2.39517758 20.5378099,2.28468527"/>
          <path id="Fill-10" fill="#354052" d="M24.0114358,9.05757978 C23.570427,9.05661934 23.1295435,9.05561714 22.6885347,9.05465536 C22.1229611,9.05340396 22.1230864,9.93032703 22.6885347,9.93157978 C23.1295435,9.93254022 23.570427,9.93354242 24.0114358,9.9345042 C24.5770095,9.9357556 24.5768842,9.05883253 24.0114358,9.05757978"/>
        </g>
      </g>
    </g>
  </g>
</svg>
