<svg xmlns="http://www.w3.org/2000/svg" xmlns:xlink="http://www.w3.org/1999/xlink" width="45" height="45" viewBox="0 0 45 45">
  <defs>
    <polygon id="path-1" points="0 0 29.981 0 29.981 18.957 0 18.957"/>
  </defs>
  <g id="OLD" fill="none" fill-rule="evenodd" stroke="none" stroke-width="1">
    <g id="Test-Copy-25" transform="translate(-840 -500)">
      <g id="SM-micro-transit" transform="translate(840 500)">
        <rect id="Rectangle-Copy-28" width="45" height="45" x="0" y="0" fill="#FFB963" rx="4.5"/>
        <g id="Group-3" transform="translate(8 13)">
          <mask id="mask-2" fill="#fff">
            <use xlink:href="#path-1"/>
          </mask>
          <path id="Fill-1" fill="#354052" d="M20.5214724,4.32514417 L11.5030675,4.32514417 L13.8957055,11.8711564 L20.7055215,4.96931595 L20.5214724,4.32514417 Z M10.4907975,13.6196227 L5.88957055,13.6196227 C5.42944785,13.6196227 5.06134969,13.1595 5.33742331,12.7914018 L7.45398773,8.65029755 C4.41717791,7.54600307 1.19631902,9.84661656 1.19631902,13.0674755 C1.19631902,15.6441626 3.31288344,17.6687025 5.88957055,17.6687025 C8.19018405,17.6687025 10.1226994,16.0122607 10.4907975,13.6196227 L10.4907975,13.6196227 Z M8.55828221,9.20244479 L6.90184049,12.4233037 L10.4907975,12.4233037 C10.3067485,11.1349601 9.57055215,9.9386411 8.55828221,9.20244479 L8.55828221,9.20244479 Z M10.5828221,5.33741411 L9.11042945,8.09815031 C10.5828221,9.11042025 11.5030675,10.6748374 11.6871166,12.4233037 L12.791411,12.4233037 L10.5828221,5.33741411 Z M17.3006135,1.74845706 C16.7484663,1.19630982 17.5766871,0.276064417 18.2208589,0.920236196 C18.3128834,1.10428528 18.4969325,1.10428528 18.7730061,1.10428528 L20.2453988,1.10428528 C20.5214724,1.10428528 20.797546,1.28833436 20.8895706,1.56440798 C21.5337423,3.49692331 22.1779141,5.42943865 22.8220859,7.26992945 C24.7546012,6.90183129 26.7791411,7.45397853 28.2515337,8.92637117 C31.9325153,12.5153282 29.3558282,18.957046 24.1104294,18.957046 C20.8895706,18.957046 18.2208589,16.2883344 18.2208589,13.0674755 C18.2208589,10.766862 19.5092025,8.65029755 21.6257669,7.73005215 L21.1656442,6.25765951 L14.0797546,13.4355736 C13.9877301,13.5275982 13.803681,13.6196227 13.6196319,13.6196227 L11.6871166,13.6196227 C11.4110429,16.6564325 8.83435583,18.957046 5.88957055,18.957046 C2.57668712,18.957046 0,16.2883344 0,13.0674755 C0,8.92637117 4.14110429,6.07361043 8.00613497,7.54600307 L10.0306748,3.68097239 L9.29447853,1.19630982 L8.09815951,1.19630982 C7.26993865,1.19630982 7.26993865,-9.20245399e-06 8.09815951,-9.20245399e-06 L11.4110429,-9.20245399e-06 C12.2392638,-9.20245399e-06 12.2392638,1.19630982 11.4110429,1.19630982 L10.5828221,1.19630982 L11.1349693,3.12882515 L20.0613497,3.12882515 L19.7852761,2.30060429 L18.7730061,2.30060429 C18.2208589,2.30060429 17.6687117,2.11655521 17.3006135,1.74845706 L17.3006135,1.74845706 Z M23.190184,8.46624847 L24.6625767,12.8834264 C24.9386503,13.6196227 23.7423313,13.9877209 23.4662577,13.2515245 L21.993865,8.83434663 C20.4294479,9.66256748 19.4171779,11.2269847 19.4171779,13.0674755 C19.4171779,15.6441626 21.5337423,17.6687025 24.1104294,17.6687025 C28.2515337,17.6687025 30.2760736,12.6073528 27.4233129,9.75459202 C26.3190184,8.65029755 24.7546012,8.19017485 23.190184,8.46624847 L23.190184,8.46624847 Z" mask="url(#mask-2)"/>
        </g>
      </g>
    </g>
  </g>
</svg>
