<svg xmlns="http://www.w3.org/2000/svg" xmlns:xlink="http://www.w3.org/1999/xlink" width="45" height="45" viewBox="0 0 45 45">
  <defs>
    <polygon id="path-1" points=".272 .116 16.28 .116 16.28 13.004 .272 13.004"/>
    <polygon id="path-3" points="0 .107 24.761 .107 24.761 8.582 0 8.582"/>
  </defs>
  <g id="OLD" fill="none" fill-rule="evenodd" stroke="none" stroke-width="1">
    <g id="Test-Copy-25" transform="translate(-416 -500)">
      <g id="SM-pooling" transform="translate(416 500)">
        <rect id="Rectangle-Copy-26" width="45" height="45" x="0" y="0" fill="#FFB963" rx="4.5"/>
        <g id="Group-17" transform="translate(10 7)">
          <g id="Group-3" transform="translate(4.104 .257)">
            <mask id="mask-2" fill="#fff">
              <use xlink:href="#path-1"/>
            </mask>
            <path id="Fill-1" fill="#354052" d="M1.39123134,6.17123134 L2.7875,5.50369403 L13.770709,5.50369403 L15.1606343,6.17085821 L15.1606343,9.61787313 L14.9561567,9.61787313 L13.8367537,9.61787313 L12.2527985,9.61787313 L11.1333955,9.61787313 L5.41847015,9.61787313 L4.29906716,9.61787313 L2.71548507,9.61787313 L1.59608209,9.61787313 L1.39123134,9.61787313 L1.39123134,6.17123134 Z M4.35988806,1.65705224 C4.43675373,1.40481343 4.66287313,1.23541045 4.92182836,1.23541045 L11.6300373,1.23541045 C11.8893657,1.23541045 12.1151119,1.40481343 12.1972015,1.67347015 L13.1169776,4.38429104 L3.43526119,4.38429104 L4.35988806,1.65705224 Z M13.8367537,11.3022015 C13.8367537,11.6234701 13.5751866,11.8850373 13.2539179,11.8850373 L12.8352612,11.8850373 C12.5143657,11.8850373 12.2527985,11.6234701 12.2527985,11.3022015 L12.2527985,10.7372761 L13.8367537,10.7372761 L13.8367537,11.3022015 Z M4.29906716,11.3022015 C4.29906716,11.6234701 4.03787313,11.8850373 3.71660448,11.8850373 L3.29794776,11.8850373 C2.9766791,11.8850373 2.71548507,11.6234701 2.71548507,11.3022015 L2.71548507,10.7372761 L4.29906716,10.7372761 L4.29906716,11.3022015 Z M0.831529851,10.7372761 L1.59608209,10.7372761 L1.59608209,11.3022015 C1.59608209,12.2410075 2.35951493,13.0040672 3.29794776,13.0040672 L3.71660448,13.0040672 C4.65503731,13.0040672 5.41847015,12.2410075 5.41847015,11.3022015 L5.41847015,10.7372761 L11.1333955,10.7372761 L11.1333955,11.3022015 C11.1333955,12.2410075 11.8968284,13.0040672 12.8352612,13.0040672 L13.2539179,13.0040672 C14.1927239,13.0040672 14.9561567,12.2410075 14.9561567,11.3022015 L14.9561567,10.7372761 L15.7203358,10.7372761 C16.029291,10.7372761 16.2800373,10.486903 16.2800373,10.1775746 L16.2800373,5.81824627 C16.2800373,5.60294776 16.1565299,5.4066791 15.9625,5.31376866 L14.3520522,4.5413806 L13.2625,1.3305597 C13.0412313,0.604067164 12.3852612,0.116007463 11.6300373,0.116007463 L4.92182836,0.116007463 C4.16660448,0.116007463 3.51100746,0.604067164 3.29458955,1.31376866 L2.19869403,4.54473881 L0.590485075,5.31339552 C0.395708955,5.40630597 0.271828358,5.60294776 0.271828358,5.81824627 L0.271828358,10.1775746 C0.271828358,10.486903 0.522574627,10.7372761 0.831529851,10.7372761 L0.831529851,10.7372761 Z" mask="url(#mask-2)"/>
          </g>
          <path id="Fill-4" fill="#354052" d="M7.54921642,7.1786194 C7.98205224,7.1786194 8.33279851,7.52936567 8.33279851,7.96257463 C8.33279851,8.39541045 7.98205224,8.74615672 7.54921642,8.74615672 C7.1163806,8.74615672 6.76526119,8.39541045 6.76526119,7.96257463 C6.76526119,7.52936567 7.1163806,7.1786194 7.54921642,7.1786194"/>
          <path id="Fill-6" fill="#354052" d="M17.1492537,7.1786194 C17.5817164,7.1786194 17.9328358,7.52936567 17.9328358,7.96257463 C17.9328358,8.39541045 17.5817164,8.74615672 17.1492537,8.74615672 C16.7164179,8.74615672 16.3652985,8.39541045 16.3652985,7.96257463 C16.3652985,7.52936567 16.7164179,7.1786194 17.1492537,7.1786194"/>
          <path id="Fill-8" fill="#354052" d="M4.91869403,16.0977612 C5.74182836,16.0977612 6.41123134,16.7671642 6.41123134,17.5902985 C6.41123134,18.4134328 5.74182836,19.0828358 4.91869403,19.0828358 C4.0955597,19.0828358 3.42615672,18.4134328 3.42615672,17.5902985 C3.42615672,16.7671642 4.0955597,16.0977612 4.91869403,16.0977612 M4.91869403,20.2022388 C6.35899254,20.2022388 7.53063433,19.030597 7.53063433,17.5902985 C7.53063433,16.15 6.35899254,14.9783582 4.91869403,14.9783582 C3.47839552,14.9783582 2.30675373,16.15 2.30675373,17.5902985 C2.30675373,19.030597 3.47839552,20.2022388 4.91869403,20.2022388"/>
          <path id="Fill-10" fill="#354052" d="M21.3346269,17.5902985 C21.3346269,18.4134328 20.6652239,19.0828358 19.8420896,19.0828358 C19.0189552,19.0828358 18.3495522,18.4134328 18.3495522,17.5902985 C18.3495522,16.7671642 19.0189552,16.0977612 19.8420896,16.0977612 C20.6652239,16.0977612 21.3346269,16.7671642 21.3346269,17.5902985 M17.2301493,17.5902985 C17.2301493,19.030597 18.4021642,20.2022388 19.8420896,20.2022388 C21.2820149,20.2022388 22.4540299,19.030597 22.4540299,17.5902985 C22.4540299,16.15 21.2820149,14.9783582 19.8420896,14.9783582 C18.4021642,14.9783582 17.2301493,16.15 17.2301493,17.5902985"/>
          <path id="Fill-12" fill="#354052" d="M12.3804851,20.7229478 C11.291306,20.7229478 10.4051119,19.8367537 10.4051119,18.7472015 C10.4051119,17.6580224 11.291306,16.7718284 12.3804851,16.7718284 C13.4696642,16.7718284 14.3558582,17.6580224 14.3558582,18.7472015 C14.3558582,19.8367537 13.4696642,20.7229478 12.3804851,20.7229478 M12.3804851,15.6524254 C10.6741418,15.6524254 9.28570896,17.0408582 9.28570896,18.7472015 C9.28570896,20.4539179 10.6741418,21.8423507 12.3804851,21.8423507 C14.0868284,21.8423507 15.4752612,20.4539179 15.4752612,18.7472015 C15.4752612,17.0408582 14.0868284,15.6524254 12.3804851,15.6524254"/>
          <g id="Group-16" transform="translate(0 21.152)">
            <mask id="mask-4" fill="#fff">
              <use xlink:href="#path-3"/>
            </mask>
            <path id="Fill-14" fill="#354052" d="M19.8716045,0.107276119 L19.8130224,0.107276119 C17.8066791,0.107276119 16.0805597,1.32257463 15.3275746,3.05503731 C14.4633955,2.54048507 13.4577985,2.23899254 12.3805597,2.23899254 C11.3033209,2.23899254 10.2977239,2.54048507 9.43317164,3.05503731 C8.68018657,1.32257463 6.95406716,0.107276119 4.94772388,0.107276119 L4.88951493,0.107276119 C2.1936194,0.107276119 -3.73134328e-05,2.3005597 -3.73134328e-05,4.99682836 L-3.73134328e-05,6.32593284 C-3.73134328e-05,6.63526119 0.250708955,6.88563433 0.559664179,6.88563433 C0.868992537,6.88563433 1.11936567,6.63526119 1.11936567,6.32593284 L1.11936567,4.99682836 C1.11936567,2.91772388 2.81078358,1.2266791 4.88951493,1.2266791 L4.94772388,1.2266791 C6.58764925,1.2266791 7.98279851,2.28078358 8.50033582,3.74608209 C7.33429104,4.80503731 6.59697761,6.32705224 6.59697761,8.02257463 C6.59697761,8.33152985 6.84735075,8.58227612 7.1566791,8.58227612 C7.46563433,8.58227612 7.7163806,8.33152985 7.7163806,8.02257463 C7.7163806,6.92630597 8.09847015,5.91996269 8.73354478,5.12294776 C9.02682836,4.75503731 9.37197761,4.43115672 9.76115672,4.16585821 C10.5085448,3.65690299 11.4100373,3.35839552 12.3805597,3.35839552 C13.350709,3.35839552 14.2522015,3.65690299 14.9995896,4.16585821 C15.3962313,4.43600746 15.7466045,4.76735075 16.0428731,5.14347015 C16.6682463,5.9375 17.0447388,6.93600746 17.0447388,8.02257463 C17.0447388,8.33152985 17.2954851,8.58227612 17.6044403,8.58227612 C17.9133955,8.58227612 18.1641418,8.33152985 18.1641418,8.02257463 C18.1641418,6.32705224 17.4264552,4.80503731 16.2604104,3.74608209 C16.7783209,2.28078358 18.1727239,1.2266791 19.8130224,1.2266791 L19.8716045,1.2266791 C21.9503358,1.2266791 23.6417537,2.91772388 23.6417537,4.99682836 L23.6417537,6.32593284 C23.6417537,6.63526119 23.8921269,6.88563433 24.2014552,6.88563433 C24.5104104,6.88563433 24.7611567,6.63526119 24.7611567,6.32593284 L24.7611567,4.99682836 C24.7611567,2.3005597 22.5678731,0.107276119 19.8716045,0.107276119" mask="url(#mask-4)"/>
          </g>
        </g>
      </g>
    </g>
  </g>
</svg>
