<svg xmlns="http://www.w3.org/2000/svg" xmlns:xlink="http://www.w3.org/1999/xlink" width="45" height="45" viewBox="0 0 45 45">
  <defs>
    <polygon id="path-1" points="0 .024 19.996 .024 19.996 30.699 0 30.699"/>
  </defs>
  <g id="OLD" fill="none" fill-rule="evenodd" stroke="none" stroke-width="1">
    <g id="Test-Copy-25" transform="translate(-831 -299)">
      <g id="SM-Ride-hailing" transform="translate(831 299)">
        <rect id="Rectangle-Copy-25" width="45" height="45" x="0" y="0" fill="#FFB963" rx="4.5"/>
        <g id="Group-6" transform="translate(13 7)">
          <g id="Group-3" transform="translate(0 .024)">
            <mask id="mask-2" fill="#fff">
              <use xlink:href="#path-1"/>
            </mask>
            <path id="Fill-1" fill="#354052" d="M6.13683373,18.4844675 C6.01143614,18.6348771 5.92994217,18.8291904 5.92994217,19.0360337 C5.92994217,19.2680337 6.02396627,19.4811422 6.18068916,19.6316 C6.33114699,19.7820096 6.53799036,19.8760337 6.76994217,19.8760337 C6.97052048,19.8760337 7.15856867,19.8070699 7.30271325,19.6879855 C6.93914699,19.2930458 6.55052048,18.8981542 6.13683373,18.4844675 L6.13683373,18.4844675 Z M13.5398217,18.6662024 L14.4487855,19.5689012 C14.6995325,19.8196 14.6995325,20.2208048 14.4487855,20.4715036 C14.2043036,20.7222988 13.7968337,20.7222988 13.5524,20.4715036 L12.6873398,19.6064916 C12.6497494,19.5876964 12.6183759,19.5626361 12.5807855,19.5375759 C11.8724482,18.9294795 11.1139422,18.3277446 10.317894,17.7259614 C9.5217494,17.1304434 8.66926747,16.5223952 7.77914699,15.9143952 C7.35288193,15.6197928 6.9830988,15.5821542 6.71350843,15.6949735 C6.5944241,15.7451422 6.48782169,15.8329012 6.40011084,15.9331904 C6.31856867,16.0397446 6.25591807,16.1714072 6.22454458,16.3092867 C6.15562892,16.6101542 6.24338795,16.9674554 6.54425542,17.262106 C7.34666506,18.0394072 8.05495422,18.7665398 8.71317108,19.5313108 C9.30864096,20.2208048 9.86656867,20.9479373 10.4181831,21.7816723 C10.5372675,21.8693831 10.6187614,22.0010458 10.6438217,22.1640337 C10.6626169,22.2204193 10.6688819,22.276853 10.6688819,22.3395518 L10.6688819,22.4147807 C10.756641,23.2735277 10.9008819,23.9254313 11.1578458,24.4896241 C11.433653,25.0976723 11.8599181,25.6304916 12.4867614,26.2447566 C12.7186651,26.4704434 12.7249301,26.8403229 12.4992916,27.0659614 C12.2799181,27.2979133 11.9100386,27.3041783 11.6780867,27.0784916 C10.9447373,26.3638892 10.4495084,25.7244675 10.1047373,24.9722747 C9.82893012,24.3705398 9.6597253,23.724853 9.55312289,22.9288048 L5.96753253,22.9538651 C5.70425542,22.9538651 5.54758072,23.0729494 5.47861687,23.2234072 L5.47235181,23.2547325 C5.42849639,23.3612867 5.41591807,23.4804193 5.42849639,23.5995036 C5.44102651,23.7311181 5.47861687,23.8565157 5.54131566,23.9693831 C5.64786988,24.1699614 5.84849639,24.307841 6.1117253,24.2702506 C6.45023133,24.2200819 6.66965301,24.1824434 6.8577012,24.144853 C7.63495422,24.0069735 8.02989398,23.9380096 9.01403855,24.1197928 C9.19582169,24.1573831 9.35254458,24.2765157 9.43403855,24.4582988 C9.7537012,25.1729012 10.2489301,25.8310699 10.8193398,26.4453349 C11.3960627,27.0596964 12.0604964,27.6363711 12.7186651,28.1755036 C12.8064723,28.2381542 12.875388,28.3196482 12.9192434,28.4262024 L13.1511952,29.0154554 L13.295388,29.3978169 C13.5962554,29.7049494 14.8813157,29.6235036 16.1663277,29.3476482 C16.7117253,29.2285639 17.2382313,29.0656241 17.6896048,28.8775277 C18.1095566,28.7020578 18.4605928,28.5014313 18.6737494,28.2883229 C18.7865205,28.1817687 18.8429542,28.0814795 18.824159,28.0125157 C18.7990988,27.968612 18.7865205,27.9184916 18.7803036,27.8683229 C18.6297976,26.9217687 18.4919181,26.1570458 18.3727855,25.4862988 C17.9842072,23.3236964 17.7585205,22.0762747 17.8525928,19.3432145 C17.8650747,18.9232145 17.7334602,18.5784434 17.5077735,18.2775759 C17.2507614,17.9391181 16.8747133,17.6507325 16.4296048,17.3874554 C15.6084482,16.8985398 15.1821831,16.1400819 14.743388,15.3752627 C14.411147,14.7860578 14.0726892,14.1905398 13.5398217,13.8081783 L13.5398217,18.6662024 Z M12.2548096,17.7635518 C12.2924482,17.7510217 12.3363518,17.7510217 12.3802072,17.7510217 L12.3802072,12.9055277 L12.3802072,2.32437108 C12.3802072,2.01097349 12.2485446,1.72885301 12.0479663,1.52200964 C11.8410747,1.31511807 11.5590506,1.18981687 11.2456048,1.18981687 L2.30049639,1.18981687 C1.9870988,1.18981687 1.70502651,1.31511807 1.49813494,1.52200964 C1.29129157,1.72885301 1.16594217,2.01097349 1.16594217,2.32437108 L1.16594217,20.3462024 C1.16594217,20.6596 1.29129157,20.9416723 1.49813494,21.1485157 C1.70502651,21.3554072 1.9870988,21.4807566 2.30049639,21.4807566 L8.7884,21.4807566 C8.48117108,21.0608048 8.16155663,20.6658651 7.82926747,20.2835036 L7.81673735,20.2646602 C7.53466506,20.5091904 7.1710988,20.6533349 6.76994217,20.6533349 C6.32483373,20.6533349 5.92367711,20.4715036 5.6290747,20.1832145 C5.34068916,19.888612 5.15895422,19.4874072 5.15895422,19.0360337 C5.15895422,18.6160819 5.32194217,18.2274554 5.59148434,17.9391181 C5.08367711,17.3623952 4.95206265,16.672853 5.08994217,16.0585398 C5.15895422,15.7451422 5.3030988,15.4505398 5.49741205,15.2060578 C5.69803855,14.9615759 5.9550506,14.7609494 6.26218313,14.6293349 C6.87023133,14.3723711 7.64126747,14.4099614 8.44358072,14.9553108 C9.3337494,15.5696241 10.1924964,16.1839373 11.013653,16.8045157 C11.4399181,17.1241783 11.853653,17.4438892 12.2548096,17.7635518 L12.2548096,17.7635518 Z M13.5398217,12.4917928 C14.6995325,12.9493831 15.2323036,13.8834072 15.7525928,14.804853 C16.109894,15.4316964 16.4671952,16.0585398 17.0251229,16.3907807 C17.5830024,16.7230217 18.0719181,17.1053831 18.4292193,17.5755518 C18.8116289,18.0832627 19.0310506,18.6724675 19.0122072,19.380853 C18.9181831,21.9947807 19.1376048,23.198347 19.507388,25.2857205 C19.6327855,25.9564675 19.7706651,26.7211904 19.914906,27.6238892 C20.1154843,28.1755036 19.933653,28.6769494 19.488641,29.1157446 C19.1626651,29.4291904 18.6924964,29.7112627 18.1408819,29.9432145 C17.6143277,30.168853 17.0125928,30.3506361 16.4108096,30.4822506 C14.668159,30.8583952 12.8002072,30.776853 12.2861831,29.9808048 C12.2610747,29.9432145 12.2422795,29.8992627 12.2297494,29.8554072 C12.185894,29.742588 12.1357253,29.5983952 12.0730265,29.4354072 L11.8975084,28.9966602 C11.2456048,28.4575277 10.574906,27.880853 9.97312289,27.2352145 C9.3964,26.6146361 8.8824241,25.9438892 8.51254458,25.2167566 C7.92960482,25.1352627 7.61615904,25.1916964 7.06454458,25.2857205 C6.8263759,25.3295759 6.55052048,25.3797446 6.28097831,25.4236 C5.45355663,25.5427325 4.84550843,25.1227325 4.51953253,24.5272627 C4.38165301,24.2765157 4.30015904,23.9943952 4.2750988,23.706106 C4.25003855,23.4114554 4.28136386,23.116853 4.38165301,22.8535277 L4.40044819,22.7971422 C4.42550843,22.7469735 4.44435181,22.696853 4.47567711,22.6466843 L2.30049639,22.6466843 C1.66743614,22.6466843 1.09071325,22.3834072 0.676978313,21.9696723 C0.256978313,21.5559855 1.44578313e-05,20.9793108 1.44578313e-05,20.3462024 L1.44578313e-05,2.32437108 C1.44578313e-05,1.69126265 0.256978313,1.11453976 0.676978313,0.700853012 C1.09071325,0.280853012 1.66743614,0.0238409639 2.30049639,0.0238409639 L11.2456048,0.0238409639 C11.8787614,0.0238409639 12.4491229,0.280853012 12.8691229,0.700853012 C13.2828578,1.11453976 13.5398217,1.69126265 13.5398217,2.32437108 L13.5398217,12.4917928 Z" mask="url(#mask-2)"/>
          </g>
          <path id="Fill-4" fill="#354052" d="M9.5280241,11.5570892 C9.11433735,11.5570892 8.77583133,11.2248 8.77583133,10.8111133 C8.77583133,10.3974265 9.11433735,10.0651855 9.5280241,10.0651855 C9.93549398,10.0651855 10.274,10.3974265 10.274,10.8111133 C10.274,11.2248 9.93549398,11.5570892 9.5280241,11.5570892 M4.46310843,9.01207711 C4.38792771,9.01834217 4.29390361,8.94311325 4.32522892,8.88046265 L4.97086747,7.55781205 C5.00224096,7.49511325 5.03356627,7.43867952 5.10253012,7.4261494 C6.24966265,7.24436627 7.39048193,7.25067952 8.53761446,7.4261494 C8.60657831,7.43867952 8.63790361,7.49511325 8.66927711,7.55781205 L9.25221687,8.86161928 C9.2773253,8.92431807 9.18956627,8.99954699 9.11433735,8.99328193 C7.60363855,8.9054747 6.04908434,8.91805301 4.46310843,9.01207711 M4.11212048,11.5570892 C3.69838554,11.5570892 3.35987952,11.2248 3.35987952,10.8111133 C3.35987952,10.3974265 3.69838554,10.0651855 4.11212048,10.0651855 C4.51954217,10.0651855 4.85804819,10.3974265 4.85804819,10.8111133 C4.85804819,11.2248 4.51954217,11.5570892 4.11212048,11.5570892 M11.0700964,9.03087229 L11.0700964,8.79896867 C11.0700964,8.63598072 10.9322169,8.49805301 10.7692289,8.49805301 L10.0420482,8.49805301 C9.89790361,8.49805301 9.77877108,8.60460723 9.74744578,8.73626988 L9.12060241,7.35723373 C9.05790361,7.21930602 8.90744578,7.11270361 8.75703614,7.08769157 C8.59404819,7.06258313 8.43106024,7.04378795 8.26807229,7.02499277 L8.19915663,6.5548241 C8.17404819,6.40441446 8.07375904,6.2728 7.91703614,6.2728 L5.74190361,6.2728 C5.58522892,6.2728 5.48489157,6.40441446 5.45983133,6.5548241 L5.38460241,7.02499277 C5.22787952,7.04378795 5.07120482,7.06258313 4.91448193,7.08769157 C4.74522892,7.11270361 4.58850602,7.24436627 4.50701205,7.3948241 L3.7986747,8.75506506 L3.7986747,8.74884819 L3.7986747,8.74253494 L3.79240964,8.73626988 L3.79240964,8.73000482 L3.79240964,8.72373976 L3.78614458,8.7174747 L3.78614458,8.71116145 L3.78614458,8.70489639 L3.77987952,8.69863133 L3.77987952,8.69241446 L3.77987952,8.6861494 L3.77361446,8.67983614 L3.77361446,8.67357108 L3.7673494,8.66730602 L3.7673494,8.66104096 L3.76108434,8.6547759 L3.76108434,8.64846265 L3.75481928,8.64224578 L3.75481928,8.63598072 L3.74850602,8.62971566 L3.74224096,8.6234506 L3.7359759,8.61713735 L3.7359759,8.61087229 L3.72975904,8.60460723 L3.72349398,8.59834217 L3.71718072,8.5921253 L3.71091566,8.58586024 L3.7046506,8.57954699 L3.69838554,8.57328193 L3.69212048,8.56701687 L3.68580723,8.56701687 L3.67959036,8.56075181 L3.67959036,8.55448675 L3.6733253,8.55448675 L3.66706024,8.54817349 L3.66079518,8.54817349 L3.65453012,8.54195663 L3.64821687,8.53569157 L3.64195181,8.53569157 L3.63568675,8.52942651 L3.62946988,8.52942651 L3.62320482,8.52942651 L3.62320482,8.52316145 L3.61689157,8.52316145 L3.61062651,8.52316145 L3.61062651,8.51684819 L3.60436145,8.51684819 L3.59809639,8.51684819 L3.59183133,8.51684819 L3.59183133,8.51058313 L3.57925301,8.51058313 L3.57303614,8.51058313 L3.56677108,8.50431807 L3.56050602,8.50431807 L3.55419277,8.50431807 L3.54792771,8.50431807 L3.54166265,8.50431807 L3.53539759,8.49805301 L3.52913253,8.49805301 L3.52286747,8.49805301 L3.51660241,8.49805301 L3.51033735,8.49805301 L3.49780723,8.49805301 L2.77693976,8.49805301 C2.60763855,8.49805301 2.4760241,8.63598072 2.4760241,8.79896867 L2.4760241,9.03087229 C2.4760241,9.19386024 2.61395181,9.30672771 2.77693976,9.33173976 L3.11539759,9.37564337 C2.80826506,9.77684819 2.63274699,10.3974265 2.63274699,10.9114506 C2.61395181,11.5006554 2.72677108,12.0522699 3.04021687,12.4346313 L3.04021687,13.1367036 C3.04021687,13.3185349 3.19062651,13.4689446 3.37240964,13.4689446 L3.98677108,13.4689446 C4.17477108,13.4689446 4.31896386,13.3185349 4.31896386,13.1367036 L4.31896386,12.9423904 L9.17703614,12.9423904 L9.3086506,12.9423904 L9.3086506,13.1367036 C9.3086506,13.3185349 9.45906024,13.4689446 9.64089157,13.4689446 L10.2552048,13.4689446 C10.443253,13.4689446 10.5936627,13.3185349 10.5936627,13.1367036 L10.5936627,12.3343422 C10.8381928,11.9896193 10.963494,11.5069205 11.0011325,10.9114506 C11.0011325,10.3535229 10.794241,9.75800482 10.4683133,9.37564337 L10.7692289,9.33173976 C10.9322169,9.30672771 11.0700964,9.19386024 11.0700964,9.03087229"/>
        </g>
      </g>
    </g>
  </g>
</svg>
