<svg xmlns="http://www.w3.org/2000/svg" width="45" height="45" viewBox="0 0 45 45">
  <g id="OLD" fill="none" fill-rule="evenodd" stroke="none" stroke-width="1">
    <g id="Test-Copy-25" transform="translate(-417 -299)">
      <g id="SM-v1.0" transform="translate(417 299)">
        <rect id="Rectangle-Copy-22" width="45" height="45" x="0" y="0" fill="#FFB963" rx="5"/>
        <g id="Group-7" fill="#354052" transform="translate(7 6)">
          <path id="Fill-1" d="M26.4,26.75178 L25.1388,26.75178 C24.8604,25.38438 23.6484,24.35178 22.2,24.35178 C20.7516,24.35178 19.539,25.38438 19.2612,26.75178 L10.7394,26.75178 C10.4604,25.38438 9.249,24.35178 7.8,24.35178 C6.351,24.35178 5.1396,25.38438 4.8606,26.75178 L3,26.75178 C1.3752,26.75178 1.2,25.07358 1.2,24.35178 C1.2,22.93998 1.8054,22.17498 3.1062,21.94158 C3.318,21.90438 3.573,21.87138 3.8484,21.83718 C4.6626,21.73338 5.586,21.61578 6.2604,21.29178 C7.4046,20.74218 7.6344,19.65618 7.8186,18.78438 C7.9986,17.93058 8.1378,17.39178 8.6976,17.07258 C10.5576,16.01418 15.867,15.82878 17.664,17.04798 C18.3078,17.48478 18.8388,18.16638 19.401,18.88878 C20.1228,19.81698 20.8692,20.77638 21.9414,21.29118 C22.8264,21.71598 24.2178,21.80118 25.3356,21.86778 C25.7244,21.89118 26.0694,21.91218 26.322,21.94518 C27.555,22.11078 28.8,22.91658 28.8,24.35178 C28.8,25.67538 27.7236,26.75178 26.4,26.75178 M22.2,29.15178 C21.2076,29.15178 20.4,28.34358 20.4,27.35178 C20.4,26.35938 21.2076,25.55178 22.2,25.55178 C23.1924,25.55178 24,26.35938 24,27.35178 C24,28.34358 23.1924,29.15178 22.2,29.15178 M7.8,29.15178 C6.8076,29.15178 6,28.34358 6,27.35178 C6,26.35938 6.8076,25.55178 7.8,25.55178 C8.7924,25.55178 9.6,26.35938 9.6,27.35178 C9.6,28.34358 8.7924,29.15178 7.8,29.15178 M26.4792,20.75718 C26.205,20.72058 25.83,20.69718 25.4076,20.67138 C24.447,20.61318 23.133,20.53398 22.4604,20.21058 C21.6426,19.81758 21.0132,19.00878 20.3478,18.15198 C19.7532,17.38818 19.1382,16.59738 18.3372,16.05438 C16.1166,14.54898 10.3422,14.75418 8.1036,16.02918 C7.0464,16.63098 6.8232,17.68698 6.6438,18.53538 C6.4632,19.39158 6.3228,19.92978 5.7402,20.20998 C5.241,20.44938 4.3848,20.55858 3.6972,20.64618 C3.399,20.68338 3.1224,20.71938 2.8944,20.76018 C1.0278,21.09438 0,22.36938 0,24.35178 C0,26.53878 1.1772,27.95178 3,27.95178 L4.8606,27.95178 C5.1396,29.31858 6.351,30.35178 7.8,30.35178 C9.249,30.35178 10.4604,29.31858 10.7394,27.95178 L19.2612,27.95178 C19.5396,29.31858 20.7516,30.35178 22.2,30.35178 C23.6484,30.35178 24.861,29.31858 25.1388,27.95178 L26.4,27.95178 C28.3854,27.95178 30,26.33718 30,24.35178 C30,22.51038 28.5522,21.03198 26.4792,20.75718"/>
          <path id="Fill-4" d="M17.4,6.59994 C18.3924,6.59994 19.2,7.40754 19.2,8.39994 C19.2,9.39234 18.3924,10.19994 17.4,10.19994 C16.4076,10.19994 15.6,9.39234 15.6,8.39994 C15.6,7.40754 16.4076,6.59994 17.4,6.59994 M24.6,1.79994 C25.5924,1.79994 26.4,2.60754 26.4,3.59994 C26.4,4.59234 25.5924,5.39994 24.6,5.39994 C23.6076,5.39994 22.8,4.59234 22.8,3.59994 C22.8,2.60754 23.6076,1.79994 24.6,1.79994 M24.6,11.39994 C25.5924,11.39994 26.4,12.20754 26.4,13.19994 C26.4,14.19234 25.5924,14.99994 24.6,14.99994 C23.6076,14.99994 22.8,14.19234 22.8,13.19994 C22.8,12.20754 23.6076,11.39994 24.6,11.39994 M17.4,11.39994 C18.2226,11.39994 18.9678,11.06634 19.5108,10.52814 L21.8244,12.07074 C21.6822,12.41994 21.6,12.79974 21.6,13.19994 C21.6,14.85414 22.9458,16.19994 24.6,16.19994 C26.2542,16.19994 27.6,14.85414 27.6,13.19994 C27.6,11.54574 26.2542,10.19994 24.6,10.19994 C23.7774,10.19994 23.0322,10.53354 22.4892,11.07174 L20.1756,9.52914 C20.3178,9.17994 20.4,8.80014 20.4,8.39994 C20.4,7.99974 20.3178,7.61994 20.1756,7.27074 L22.4892,5.72874 C23.0322,6.26634 23.7774,6.59994 24.6,6.59994 C26.2542,6.59994 27.6,5.25414 27.6,3.59994 C27.6,1.94574 26.2542,0.59994 24.6,0.59994 C22.9458,0.59994 21.6,1.94574 21.6,3.59994 C21.6,4.00014 21.6822,4.37994 21.8244,4.72914 L19.5108,6.27114 C18.9678,5.73354 18.2226,5.39994 17.4,5.39994 C15.7458,5.39994 14.4,6.74574 14.4,8.39994 C14.4,10.05414 15.7458,11.39994 17.4,11.39994"/>
        </g>
      </g>
    </g>
  </g>
</svg>
