<svg xmlns="http://www.w3.org/2000/svg" xmlns:xlink="http://www.w3.org/1999/xlink" width="45" height="45" viewBox="0 0 45 45">
  <defs>
    <polygon id="path-1" points="0 .598 30 .598 30 15.952 0 15.952"/>
    <polygon id="path-3" points="0 0 30 0 30 12 0 12"/>
  </defs>
  <g id="OLD" fill="none" fill-rule="evenodd" stroke="none" stroke-width="1">
    <g id="Test-Copy-25" transform="translate(-624 -299)">
      <g id="SM-v3.0" transform="translate(624 299)">
        <rect id="Rectangle-Copy-24" width="45" height="45" x="0" y="0" fill="#FFB963" rx="4.5"/>
        <g id="Group-7" transform="translate(8 6)">
          <g id="Group-3" transform="translate(0 .002)">
            <mask id="mask-2" fill="#fff">
              <use xlink:href="#path-1"/>
            </mask>
            <path id="Fill-1" fill="#354052" d="M3.10608,7.54212 C3.31788,7.50432 3.57288,7.47192 3.84828,7.43712 C4.66248,7.33392 5.58588,7.21632 6.26028,6.89232 C7.40448,6.34212 7.63428,5.25672 7.81848,4.38432 C7.99848,3.53112 8.13768,2.99172 8.69748,2.67312 C10.55748,1.61412 15.86748,1.42872 17.66448,2.64792 C18.30768,3.08472 18.83928,3.76692 19.40088,4.48932 C20.12268,5.41752 20.86908,6.37692 21.94188,6.89232 C22.82628,7.31712 24.21828,7.40112 25.33548,7.46892 C25.72428,7.49292 26.06928,7.51272 26.32188,7.54632 C27.55488,7.71012 28.79988,8.51712 28.79988,9.95172 C28.79988,11.27532 27.72348,12.35172 26.39988,12.35172 L25.13928,12.35172 C24.86028,10.98432 23.64828,9.95172 22.19988,9.95172 C20.75148,9.95172 19.53948,10.98432 19.26108,12.35172 L10.73928,12.35172 C10.46028,10.98432 9.24888,9.95172 7.79988,9.95172 C6.35088,9.95172 5.13948,10.98432 4.86048,12.35172 L2.99988,12.35172 C1.37508,12.35172 1.19988,10.67352 1.19988,9.95172 C1.19988,8.54052 1.80528,7.77492 3.10608,7.54212 M22.19988,14.75172 C21.20748,14.75172 20.39988,13.94412 20.39988,12.95172 C20.39988,11.95932 21.20748,11.15172 22.19988,11.15172 C23.19288,11.15172 23.99988,11.95932 23.99988,12.95172 C23.99988,13.94412 23.19288,14.75172 22.19988,14.75172 M7.79988,14.75172 C6.80748,14.75172 5.99988,13.94412 5.99988,12.95172 C5.99988,11.95932 6.80748,11.15172 7.79988,11.15172 C8.79228,11.15172 9.59988,11.95932 9.59988,12.95172 C9.59988,13.94412 8.79228,14.75172 7.79988,14.75172 M2.99988,13.55172 L4.86048,13.55172 C5.13948,14.91912 6.35088,15.95172 7.79988,15.95172 C9.24888,15.95172 10.46028,14.91912 10.73928,13.55172 L19.26108,13.55172 C19.54008,14.91912 20.75148,15.95172 22.19988,15.95172 C23.64828,15.95172 24.86088,14.91912 25.13928,13.55172 L26.39988,13.55172 C28.38528,13.55172 29.99988,11.93712 29.99988,9.95172 C29.99988,8.11032 28.55208,6.63192 26.47908,6.35712 C26.20488,6.32052 25.82988,6.29712 25.40748,6.27132 C24.44688,6.21312 23.13288,6.13392 22.46028,5.81052 C21.64308,5.41752 21.01368,4.60872 20.34768,3.75252 C19.75308,2.98812 19.13868,2.19792 18.33708,1.65492 C16.11708,0.14892 10.34208,0.35472 8.10348,1.62972 C7.04628,2.23152 6.82308,3.28752 6.64368,4.13592 C6.46308,4.99152 6.32268,5.53032 5.74008,5.81052 C5.24088,6.04992 4.38468,6.15912 3.69708,6.24672 C3.39888,6.28452 3.12228,6.31992 2.89428,6.36072 C1.02768,6.69492 -0.00012,7.97052 -0.00012,9.95172 C-0.00012,12.13872 1.17708,13.55172 2.99988,13.55172" mask="url(#mask-2)"/>
          </g>
          <g id="Group-6" transform="translate(0 18.602)">
            <mask id="mask-4" fill="#fff">
              <use xlink:href="#path-3"/>
            </mask>
            <path id="Fill-4" fill="#354052" d="M25.8,10.80024 L9.249,10.80024 L5.8242,7.37604 C5.712,7.26264 5.559,7.20024 5.4,7.20024 L1.2,7.20024 L1.2,1.20024 L11.151,1.20024 L14.5758,4.62444 C14.643,4.69104 14.7264,4.73424 14.8146,4.76244 C15.1056,5.22624 15.0516,5.84544 14.649,6.24864 C14.181,6.71544 13.4196,6.71544 12.9522,6.24864 L10.5774,3.87324 C10.3428,3.63804 9.9636,3.63804 9.729,3.87324 C9.4944,4.10784 9.4944,4.48704 9.729,4.72104 L12.1038,7.09644 C12.5718,7.56444 13.1862,7.79904 13.8006,7.79904 C14.415,7.79904 15.0294,7.56444 15.4974,7.09644 C16.1196,6.47484 16.3182,5.59524 16.113,4.80024 L25.8,4.80024 C27.4542,4.80024 28.8,6.14544 28.8,7.80024 C28.8,9.45444 27.4542,10.80024 25.8,10.80024 M25.8,3.60024 L15.342,3.60024 C15.2964,3.57684 15.2496,3.56244 15.2004,3.55224 L11.8236,0.17544 C11.7114,0.06264 11.559,0.00024 11.4,0.00024 L0.6,0.00024 C0.2688,0.00024 0,0.26844 0,0.60024 L0,7.80024 C0,8.13204 0.2688,8.40024 0.6,8.40024 L5.1516,8.40024 L8.5764,11.82444 C8.6886,11.93724 8.841,12.00024 9,12.00024 L25.8,12.00024 C28.1154,12.00024 30,10.11504 30,7.80024 C30,5.48484 28.1154,3.60024 25.8,3.60024" mask="url(#mask-4)"/>
          </g>
        </g>
      </g>
    </g>
  </g>
</svg>
